<svg xmlns="http://www.w3.org/2000/svg" width="244" height="244"><rect width="100%" height="100%" x="0" y="0" fill="#A29BFE"/><rect width="31.733" height="31.733" x="2.267" y="2.267" fill="none" stroke="#222" style="opacity:.028666666666667;stroke-width:4.5333333333333px"/><rect width="13.6" height="13.6" x="11.333" y="11.333" fill="none" stroke="#222" style="opacity:.080666666666667;stroke-width:4.5333333333333px"/><rect width="31.733" height="31.733" x="43.067" y="2.267" fill="none" stroke="#222" style="opacity:.080666666666667;stroke-width:4.5333333333333px"/><rect width="13.6" height="13.6" x="52.133" y="11.333" fill="none" stroke="#222" style="opacity:.13266666666667;stroke-width:4.5333333333333px"/><rect width="31.733" height="31.733" x="83.867" y="2.267" fill="none" stroke="#ddd" style="opacity:.02;stroke-width:4.5333333333333px"/><rect width="13.6" height="13.6" x="92.933" y="11.333" fill="none" stroke="#ddd" style="opacity:.054666666666667;stroke-width:4.5333333333333px"/><rect width="31.733" height="31.733" x="124.667" y="2.267" fill="none" stroke="#ddd" style="opacity:.124;stroke-width:4.5333333333333px"/><rect width="13.6" height="13.6" x="133.733" y="11.333" fill="none" stroke="#222" style="opacity:.098;stroke-width:4.5333333333333px"/><rect width="31.733" height="31.733" x="165.467" y="2.267" fill="none" stroke="#222" style="opacity:.080666666666667;stroke-width:4.5333333333333px"/><rect width="13.6" height="13.6" x="174.533" y="11.333" fill="none" stroke="#222" style="opacity:.080666666666667;stroke-width:4.5333333333333px"/><rect width="31.733" height="31.733" x="206.267" y="2.267" fill="none" stroke="#222" style="opacity:.046;stroke-width:4.5333333333333px"/><rect width="13.6" height="13.6" x="215.333" y="11.333" fill="none" stroke="#ddd" style="opacity:.10666666666667;stroke-width:4.5333333333333px"/><rect width="31.733" height="31.733" x="2.267" y="43.067" fill="none" stroke="#222" style="opacity:.11533333333333;stroke-width:4.5333333333333px"/><rect width="13.6" height="13.6" x="11.333" y="52.133" fill="none" stroke="#ddd" style="opacity:.124;stroke-width:4.5333333333333px"/><rect width="31.733" height="31.733" x="43.067" y="43.067" fill="none" stroke="#ddd" style="opacity:.124;stroke-width:4.5333333333333px"/><rect width="13.6" height="13.6" x="52.133" y="52.133" fill="none" stroke="#222" style="opacity:.046;stroke-width:4.5333333333333px"/><rect width="31.733" height="31.733" x="83.867" y="43.067" fill="none" stroke="#ddd" style="opacity:.037333333333333;stroke-width:4.5333333333333px"/><rect width="13.6" height="13.6" x="92.933" y="52.133" fill="none" stroke="#222" style="opacity:.13266666666667;stroke-width:4.5333333333333px"/><rect width="31.733" height="31.733" x="124.667" y="43.067" fill="none" stroke="#ddd" style="opacity:.10666666666667;stroke-width:4.5333333333333px"/><rect width="13.6" height="13.6" x="133.733" y="52.133" fill="none" stroke="#ddd" style="opacity:.14133333333333;stroke-width:4.5333333333333px"/><rect width="31.733" height="31.733" x="165.467" y="43.067" fill="none" stroke="#ddd" style="opacity:.10666666666667;stroke-width:4.5333333333333px"/><rect width="13.6" height="13.6" x="174.533" y="52.133" fill="none" stroke="#ddd" style="opacity:.124;stroke-width:4.5333333333333px"/><rect width="31.733" height="31.733" x="206.267" y="43.067" fill="none" stroke="#ddd" style="opacity:.02;stroke-width:4.5333333333333px"/><rect width="13.6" height="13.6" x="215.333" y="52.133" fill="none" stroke="#ddd" style="opacity:.10666666666667;stroke-width:4.5333333333333px"/><rect width="31.733" height="31.733" x="2.267" y="83.867" fill="none" stroke="#ddd" style="opacity:.124;stroke-width:4.5333333333333px"/><rect width="13.6" height="13.6" x="11.333" y="92.933" fill="none" stroke="#222" style="opacity:.15;stroke-width:4.5333333333333px"/><rect width="31.733" height="31.733" x="43.067" y="83.867" fill="none" stroke="#222" style="opacity:.046;stroke-width:4.5333333333333px"/><rect width="13.6" height="13.6" x="52.133" y="92.933" fill="none" stroke="#222" style="opacity:.080666666666667;stroke-width:4.5333333333333px"/><rect width="31.733" height="31.733" x="83.867" y="83.867" fill="none" stroke="#ddd" style="opacity:.089333333333333;stroke-width:4.5333333333333px"/><rect width="13.6" height="13.6" x="92.933" y="92.933" fill="none" stroke="#222" style="opacity:.028666666666667;stroke-width:4.5333333333333px"/><rect width="31.733" height="31.733" x="124.667" y="83.867" fill="none" stroke="#ddd" style="opacity:.14133333333333;stroke-width:4.5333333333333px"/><rect width="13.6" height="13.6" x="133.733" y="92.933" fill="none" stroke="#ddd" style="opacity:.072;stroke-width:4.5333333333333px"/><rect width="31.733" height="31.733" x="165.467" y="83.867" fill="none" stroke="#222" style="opacity:.098;stroke-width:4.5333333333333px"/><rect width="13.6" height="13.6" x="174.533" y="92.933" fill="none" stroke="#ddd" style="opacity:.054666666666667;stroke-width:4.5333333333333px"/><rect width="31.733" height="31.733" x="206.267" y="83.867" fill="none" stroke="#ddd" style="opacity:.072;stroke-width:4.5333333333333px"/><rect width="13.6" height="13.6" x="215.333" y="92.933" fill="none" stroke="#ddd" style="opacity:.10666666666667;stroke-width:4.5333333333333px"/><rect width="31.733" height="31.733" x="2.267" y="124.667" fill="none" stroke="#222" style="opacity:.13266666666667;stroke-width:4.5333333333333px"/><rect width="13.6" height="13.6" x="11.333" y="133.733" fill="none" stroke="#ddd" style="opacity:.14133333333333;stroke-width:4.5333333333333px"/><rect width="31.733" height="31.733" x="43.067" y="124.667" fill="none" stroke="#222" style="opacity:.080666666666667;stroke-width:4.5333333333333px"/><rect width="13.6" height="13.6" x="52.133" y="133.733" fill="none" stroke="#222" style="opacity:.13266666666667;stroke-width:4.5333333333333px"/><rect width="31.733" height="31.733" x="83.867" y="124.667" fill="none" stroke="#222" style="opacity:.13266666666667;stroke-width:4.5333333333333px"/><rect width="13.6" height="13.6" x="92.933" y="133.733" fill="none" stroke="#222" style="opacity:.080666666666667;stroke-width:4.5333333333333px"/><rect width="31.733" height="31.733" x="124.667" y="124.667" fill="none" stroke="#ddd" style="opacity:.14133333333333;stroke-width:4.5333333333333px"/><rect width="13.6" height="13.6" x="133.733" y="133.733" fill="none" stroke="#222" style="opacity:.13266666666667;stroke-width:4.5333333333333px"/><rect width="31.733" height="31.733" x="165.467" y="124.667" fill="none" stroke="#ddd" style="opacity:.10666666666667;stroke-width:4.5333333333333px"/><rect width="13.6" height="13.6" x="174.533" y="133.733" fill="none" stroke="#ddd" style="opacity:.072;stroke-width:4.5333333333333px"/><rect width="31.733" height="31.733" x="206.267" y="124.667" fill="none" stroke="#ddd" style="opacity:.054666666666667;stroke-width:4.5333333333333px"/><rect width="13.6" height="13.6" x="215.333" y="133.733" fill="none" stroke="#222" style="opacity:.098;stroke-width:4.5333333333333px"/><rect width="31.733" height="31.733" x="2.267" y="165.467" fill="none" stroke="#ddd" style="opacity:.072;stroke-width:4.5333333333333px"/><rect width="13.6" height="13.6" x="11.333" y="174.533" fill="none" stroke="#ddd" style="opacity:.14133333333333;stroke-width:4.5333333333333px"/><rect width="31.733" height="31.733" x="43.067" y="165.467" fill="none" stroke="#222" style="opacity:.028666666666667;stroke-width:4.5333333333333px"/><rect width="13.6" height="13.6" x="52.133" y="174.533" fill="none" stroke="#ddd" style="opacity:.089333333333333;stroke-width:4.5333333333333px"/><rect width="31.733" height="31.733" x="83.867" y="165.467" fill="none" stroke="#222" style="opacity:.080666666666667;stroke-width:4.5333333333333px"/><rect width="13.6" height="13.6" x="92.933" y="174.533" fill="none" stroke="#222" style="opacity:.046;stroke-width:4.5333333333333px"/><rect width="31.733" height="31.733" x="124.667" y="165.467" fill="none" stroke="#222" style="opacity:.15;stroke-width:4.5333333333333px"/><rect width="13.6" height="13.6" x="133.733" y="174.533" fill="none" stroke="#ddd" style="opacity:.124;stroke-width:4.5333333333333px"/><rect width="31.733" height="31.733" x="165.467" y="165.467" fill="none" stroke="#ddd" style="opacity:.10666666666667;stroke-width:4.5333333333333px"/><rect width="13.6" height="13.6" x="174.533" y="174.533" fill="none" stroke="#ddd" style="opacity:.02;stroke-width:4.5333333333333px"/><rect width="31.733" height="31.733" x="206.267" y="165.467" fill="none" stroke="#ddd" style="opacity:.124;stroke-width:4.5333333333333px"/><rect width="13.6" height="13.6" x="215.333" y="174.533" fill="none" stroke="#ddd" style="opacity:.10666666666667;stroke-width:4.5333333333333px"/><rect width="31.733" height="31.733" x="2.267" y="206.267" fill="none" stroke="#ddd" style="opacity:.14133333333333;stroke-width:4.5333333333333px"/><rect width="13.6" height="13.6" x="11.333" y="215.333" fill="none" stroke="#ddd" style="opacity:.10666666666667;stroke-width:4.5333333333333px"/><rect width="31.733" height="31.733" x="43.067" y="206.267" fill="none" stroke="#222" style="opacity:.13266666666667;stroke-width:4.5333333333333px"/><rect width="13.6" height="13.6" x="52.133" y="215.333" fill="none" stroke="#ddd" style="opacity:.037333333333333;stroke-width:4.5333333333333px"/><rect width="31.733" height="31.733" x="83.867" y="206.267" fill="none" stroke="#222" style="opacity:.046;stroke-width:4.5333333333333px"/><rect width="13.6" height="13.6" x="92.933" y="215.333" fill="none" stroke="#ddd" style="opacity:.124;stroke-width:4.5333333333333px"/><rect width="31.733" height="31.733" x="124.667" y="206.267" fill="none" stroke="#ddd" style="opacity:.124;stroke-width:4.5333333333333px"/><rect width="13.6" height="13.6" x="133.733" y="215.333" fill="none" stroke="#222" style="opacity:.11533333333333;stroke-width:4.5333333333333px"/><rect width="31.733" height="31.733" x="165.467" y="206.267" fill="none" stroke="#ddd" style="opacity:.10666666666667;stroke-width:4.5333333333333px"/><rect width="13.6" height="13.6" x="174.533" y="215.333" fill="none" stroke="#222" style="opacity:.046;stroke-width:4.5333333333333px"/><rect width="31.733" height="31.733" x="206.267" y="206.267" fill="none" stroke="#222" style="opacity:.080666666666667;stroke-width:4.5333333333333px"/><rect width="13.6" height="13.6" x="215.333" y="215.333" fill="none" stroke="#222" style="opacity:.080666666666667;stroke-width:4.5333333333333px"/></svg>