<svg xmlns="http://www.w3.org/2000/svg" width="72" height="72"><rect width="100%" height="100%" x="0" y="0" fill="#FD79A8"/><circle cx="6" cy="6" r="5" fill="none" stroke="#ddd" style="opacity:.02;stroke-width:2px"/><circle cx="6" cy="6" r="2.5" fill="#ddd" fill-opacity=".037"/><circle cx="18" cy="6" r="5" fill="none" stroke="#222" style="opacity:.063333333333333;stroke-width:2px"/><circle cx="18" cy="6" r="2.5" fill="#ddd" fill-opacity=".072"/><circle cx="30" cy="6" r="5" fill="none" stroke="#222" style="opacity:.15;stroke-width:2px"/><circle cx="30" cy="6" r="2.5" fill="#222" fill-opacity=".098"/><circle cx="42" cy="6" r="5" fill="none" stroke="#222" style="opacity:.11533333333333;stroke-width:2px"/><circle cx="42" cy="6" r="2.5" fill="#222" fill-opacity=".029"/><circle cx="54" cy="6" r="5" fill="none" stroke="#ddd" style="opacity:.02;stroke-width:2px"/><circle cx="54" cy="6" r="2.5" fill="#ddd" fill-opacity=".124"/><circle cx="66" cy="6" r="5" fill="none" stroke="#ddd" style="opacity:.124;stroke-width:2px"/><circle cx="66" cy="6" r="2.5" fill="#222" fill-opacity=".081"/><circle cx="6" cy="18" r="5" fill="none" stroke="#ddd" style="opacity:.124;stroke-width:2px"/><circle cx="6" cy="18" r="2.5" fill="#ddd" fill-opacity=".141"/><circle cx="18" cy="18" r="5" fill="none" stroke="#222" style="opacity:.13266666666667;stroke-width:2px"/><circle cx="18" cy="18" r="2.5" fill="#222" fill-opacity=".115"/><circle cx="30" cy="18" r="5" fill="none" stroke="#ddd" style="opacity:.072;stroke-width:2px"/><circle cx="30" cy="18" r="2.5" fill="#ddd" fill-opacity=".02"/><circle cx="42" cy="18" r="5" fill="none" stroke="#ddd" style="opacity:.054666666666667;stroke-width:2px"/><circle cx="42" cy="18" r="2.5" fill="#222" fill-opacity=".081"/><circle cx="54" cy="18" r="5" fill="none" stroke="#ddd" style="opacity:.02;stroke-width:2px"/><circle cx="54" cy="18" r="2.5" fill="#ddd" fill-opacity=".02"/><circle cx="66" cy="18" r="5" fill="none" stroke="#222" style="opacity:.028666666666667;stroke-width:2px"/><circle cx="66" cy="18" r="2.5" fill="#ddd" fill-opacity=".055"/><circle cx="6" cy="30" r="5" fill="none" stroke="#ddd" style="opacity:.10666666666667;stroke-width:2px"/><circle cx="6" cy="30" r="2.5" fill="#222" fill-opacity=".098"/><circle cx="18" cy="30" r="5" fill="none" stroke="#ddd" style="opacity:.072;stroke-width:2px"/><circle cx="18" cy="30" r="2.5" fill="#222" fill-opacity=".098"/><circle cx="30" cy="30" r="5" fill="none" stroke="#ddd" style="opacity:.14133333333333;stroke-width:2px"/><circle cx="30" cy="30" r="2.5" fill="#ddd" fill-opacity=".089"/><circle cx="42" cy="30" r="5" fill="none" stroke="#222" style="opacity:.028666666666667;stroke-width:2px"/><circle cx="42" cy="30" r="2.5" fill="#222" fill-opacity=".029"/><circle cx="54" cy="30" r="5" fill="none" stroke="#ddd" style="opacity:.089333333333333;stroke-width:2px"/><circle cx="54" cy="30" r="2.5" fill="#ddd" fill-opacity=".089"/><circle cx="66" cy="30" r="5" fill="none" stroke="#ddd" style="opacity:.14133333333333;stroke-width:2px"/><circle cx="66" cy="30" r="2.5" fill="#222" fill-opacity=".029"/><circle cx="6" cy="42" r="5" fill="none" stroke="#222" style="opacity:.098;stroke-width:2px"/><circle cx="6" cy="42" r="2.5" fill="#222" fill-opacity=".081"/><circle cx="18" cy="42" r="5" fill="none" stroke="#ddd" style="opacity:.089333333333333;stroke-width:2px"/><circle cx="18" cy="42" r="2.5" fill="#ddd" fill-opacity=".107"/><circle cx="30" cy="42" r="5" fill="none" stroke="#ddd" style="opacity:.10666666666667;stroke-width:2px"/><circle cx="30" cy="42" r="2.5" fill="#ddd" fill-opacity=".089"/><circle cx="42" cy="42" r="5" fill="none" stroke="#222" style="opacity:.080666666666667;stroke-width:2px"/><circle cx="42" cy="42" r="2.5" fill="#222" fill-opacity=".098"/><circle cx="54" cy="42" r="5" fill="none" stroke="#222" style="opacity:.028666666666667;stroke-width:2px"/><circle cx="54" cy="42" r="2.5" fill="#ddd" fill-opacity=".141"/><circle cx="66" cy="42" r="5" fill="none" stroke="#ddd" style="opacity:.089333333333333;stroke-width:2px"/><circle cx="66" cy="42" r="2.5" fill="#ddd" fill-opacity=".089"/><circle cx="6" cy="54" r="5" fill="none" stroke="#222" style="opacity:.028666666666667;stroke-width:2px"/><circle cx="6" cy="54" r="2.5" fill="#222" fill-opacity=".029"/><circle cx="18" cy="54" r="5" fill="none" stroke="#ddd" style="opacity:.089333333333333;stroke-width:2px"/><circle cx="18" cy="54" r="2.5" fill="#ddd" fill-opacity=".141"/><circle cx="30" cy="54" r="5" fill="none" stroke="#222" style="opacity:.098;stroke-width:2px"/><circle cx="30" cy="54" r="2.5" fill="#ddd" fill-opacity=".072"/><circle cx="42" cy="54" r="5" fill="none" stroke="#222" style="opacity:.098;stroke-width:2px"/><circle cx="42" cy="54" r="2.5" fill="#ddd" fill-opacity=".107"/><circle cx="54" cy="54" r="5" fill="none" stroke="#ddd" style="opacity:.054666666666667;stroke-width:2px"/><circle cx="54" cy="54" r="2.5" fill="#222" fill-opacity=".029"/><circle cx="66" cy="54" r="5" fill="none" stroke="#ddd" style="opacity:.02;stroke-width:2px"/><circle cx="66" cy="54" r="2.5" fill="#ddd" fill-opacity=".02"/><circle cx="6" cy="66" r="5" fill="none" stroke="#222" style="opacity:.080666666666667;stroke-width:2px"/><circle cx="6" cy="66" r="2.5" fill="#ddd" fill-opacity=".055"/><circle cx="18" cy="66" r="5" fill="none" stroke="#ddd" style="opacity:.02;stroke-width:2px"/><circle cx="18" cy="66" r="2.5" fill="#ddd" fill-opacity=".072"/><circle cx="30" cy="66" r="5" fill="none" stroke="#222" style="opacity:.11533333333333;stroke-width:2px"/><circle cx="30" cy="66" r="2.5" fill="#222" fill-opacity=".133"/><circle cx="42" cy="66" r="5" fill="none" stroke="#ddd" style="opacity:.14133333333333;stroke-width:2px"/><circle cx="42" cy="66" r="2.5" fill="#ddd" fill-opacity=".124"/><circle cx="54" cy="66" r="5" fill="none" stroke="#222" style="opacity:.080666666666667;stroke-width:2px"/><circle cx="54" cy="66" r="2.5" fill="#ddd" fill-opacity=".124"/><circle cx="66" cy="66" r="5" fill="none" stroke="#ddd" style="opacity:.124;stroke-width:2px"/><circle cx="66" cy="66" r="2.5" fill="#ddd" fill-opacity=".02"/></svg>