<svg xmlns="http://www.w3.org/2000/svg" width="110" height="190"><rect width="100%" height="100%" x="0" y="0" fill="#81ECEC"/><polyline fill="#222" fill-opacity=".063" stroke="#000" stroke-opacity=".02" points="18.333 0 36.667 31.754 0 31.754 18.333 0" transform="translate(-18.333333333333, 0) rotate(180, 18.333333333333, 15.877132402715)"/><polyline fill="#222" fill-opacity=".063" stroke="#000" stroke-opacity=".02" points="18.333 0 36.667 31.754 0 31.754 18.333 0" transform="translate(91.666666666667, 0) rotate(180, 18.333333333333, 15.877132402715)"/><polyline fill="#ddd" fill-opacity=".124" stroke="#000" stroke-opacity=".02" points="18.333 0 36.667 31.754 0 31.754 18.333 0" transform="translate(0, 0) rotate(0, 18.333333333333, 15.877132402715)"/><polyline fill="#ddd" fill-opacity=".107" stroke="#000" stroke-opacity=".02" points="18.333 0 36.667 31.754 0 31.754 18.333 0" transform="translate(18.333333333333, 0) rotate(180, 18.333333333333, 15.877132402715)"/><polyline fill="#222" fill-opacity=".15" stroke="#000" stroke-opacity=".02" points="18.333 0 36.667 31.754 0 31.754 18.333 0" transform="translate(36.666666666667, 0) rotate(0, 18.333333333333, 15.877132402715)"/><polyline fill="#ddd" fill-opacity=".107" stroke="#000" stroke-opacity=".02" points="18.333 0 36.667 31.754 0 31.754 18.333 0" transform="translate(55, 0) rotate(180, 18.333333333333, 15.877132402715)"/><polyline fill="#ddd" fill-opacity=".124" stroke="#000" stroke-opacity=".02" points="18.333 0 36.667 31.754 0 31.754 18.333 0" transform="translate(73.333333333333, 0) rotate(0, 18.333333333333, 15.877132402715)"/><polyline fill="#222" fill-opacity=".098" stroke="#000" stroke-opacity=".02" points="18.333 0 36.667 31.754 0 31.754 18.333 0" transform="translate(-18.333333333333, 31.754264805429) rotate(0, 18.333333333333, 15.877132402715)"/><polyline fill="#222" fill-opacity=".098" stroke="#000" stroke-opacity=".02" points="18.333 0 36.667 31.754 0 31.754 18.333 0" transform="translate(91.666666666667, 31.754264805429) rotate(0, 18.333333333333, 15.877132402715)"/><polyline fill="#222" fill-opacity=".133" stroke="#000" stroke-opacity=".02" points="18.333 0 36.667 31.754 0 31.754 18.333 0" transform="translate(0, 31.754264805429) rotate(180, 18.333333333333, 15.877132402715)"/><polyline fill="#222" fill-opacity=".115" stroke="#000" stroke-opacity=".02" points="18.333 0 36.667 31.754 0 31.754 18.333 0" transform="translate(18.333333333333, 31.754264805429) rotate(0, 18.333333333333, 15.877132402715)"/><polyline fill="#222" fill-opacity=".115" stroke="#000" stroke-opacity=".02" points="18.333 0 36.667 31.754 0 31.754 18.333 0" transform="translate(36.666666666667, 31.754264805429) rotate(180, 18.333333333333, 15.877132402715)"/><polyline fill="#ddd" fill-opacity=".055" stroke="#000" stroke-opacity=".02" points="18.333 0 36.667 31.754 0 31.754 18.333 0" transform="translate(55, 31.754264805429) rotate(0, 18.333333333333, 15.877132402715)"/><polyline fill="#222" fill-opacity=".115" stroke="#000" stroke-opacity=".02" points="18.333 0 36.667 31.754 0 31.754 18.333 0" transform="translate(73.333333333333, 31.754264805429) rotate(180, 18.333333333333, 15.877132402715)"/><polyline fill="#222" fill-opacity=".046" stroke="#000" stroke-opacity=".02" points="18.333 0 36.667 31.754 0 31.754 18.333 0" transform="translate(-18.333333333333, 63.508529610859) rotate(180, 18.333333333333, 15.877132402715)"/><polyline fill="#222" fill-opacity=".046" stroke="#000" stroke-opacity=".02" points="18.333 0 36.667 31.754 0 31.754 18.333 0" transform="translate(91.666666666667, 63.508529610859) rotate(180, 18.333333333333, 15.877132402715)"/><polyline fill="#ddd" fill-opacity=".107" stroke="#000" stroke-opacity=".02" points="18.333 0 36.667 31.754 0 31.754 18.333 0" transform="translate(0, 63.508529610859) rotate(0, 18.333333333333, 15.877132402715)"/><polyline fill="#222" fill-opacity=".133" stroke="#000" stroke-opacity=".02" points="18.333 0 36.667 31.754 0 31.754 18.333 0" transform="translate(18.333333333333, 63.508529610859) rotate(180, 18.333333333333, 15.877132402715)"/><polyline fill="#ddd" fill-opacity=".124" stroke="#000" stroke-opacity=".02" points="18.333 0 36.667 31.754 0 31.754 18.333 0" transform="translate(36.666666666667, 63.508529610859) rotate(0, 18.333333333333, 15.877132402715)"/><polyline fill="#ddd" fill-opacity=".089" stroke="#000" stroke-opacity=".02" points="18.333 0 36.667 31.754 0 31.754 18.333 0" transform="translate(55, 63.508529610859) rotate(180, 18.333333333333, 15.877132402715)"/><polyline fill="#222" fill-opacity=".081" stroke="#000" stroke-opacity=".02" points="18.333 0 36.667 31.754 0 31.754 18.333 0" transform="translate(73.333333333333, 63.508529610859) rotate(0, 18.333333333333, 15.877132402715)"/><polyline fill="#222" fill-opacity=".115" stroke="#000" stroke-opacity=".02" points="18.333 0 36.667 31.754 0 31.754 18.333 0" transform="translate(-18.333333333333, 95.262794416288) rotate(0, 18.333333333333, 15.877132402715)"/><polyline fill="#222" fill-opacity=".115" stroke="#000" stroke-opacity=".02" points="18.333 0 36.667 31.754 0 31.754 18.333 0" transform="translate(91.666666666667, 95.262794416288) rotate(0, 18.333333333333, 15.877132402715)"/><polyline fill="#ddd" fill-opacity=".02" stroke="#000" stroke-opacity=".02" points="18.333 0 36.667 31.754 0 31.754 18.333 0" transform="translate(0, 95.262794416288) rotate(180, 18.333333333333, 15.877132402715)"/><polyline fill="#ddd" fill-opacity=".089" stroke="#000" stroke-opacity=".02" points="18.333 0 36.667 31.754 0 31.754 18.333 0" transform="translate(18.333333333333, 95.262794416288) rotate(0, 18.333333333333, 15.877132402715)"/><polyline fill="#222" fill-opacity=".133" stroke="#000" stroke-opacity=".02" points="18.333 0 36.667 31.754 0 31.754 18.333 0" transform="translate(36.666666666667, 95.262794416288) rotate(180, 18.333333333333, 15.877132402715)"/><polyline fill="#ddd" fill-opacity=".037" stroke="#000" stroke-opacity=".02" points="18.333 0 36.667 31.754 0 31.754 18.333 0" transform="translate(55, 95.262794416288) rotate(0, 18.333333333333, 15.877132402715)"/><polyline fill="#ddd" fill-opacity=".072" stroke="#000" stroke-opacity=".02" points="18.333 0 36.667 31.754 0 31.754 18.333 0" transform="translate(73.333333333333, 95.262794416288) rotate(180, 18.333333333333, 15.877132402715)"/><polyline fill="#ddd" fill-opacity=".037" stroke="#000" stroke-opacity=".02" points="18.333 0 36.667 31.754 0 31.754 18.333 0" transform="translate(-18.333333333333, 127.01705922172) rotate(180, 18.333333333333, 15.877132402715)"/><polyline fill="#ddd" fill-opacity=".037" stroke="#000" stroke-opacity=".02" points="18.333 0 36.667 31.754 0 31.754 18.333 0" transform="translate(91.666666666667, 127.01705922172) rotate(180, 18.333333333333, 15.877132402715)"/><polyline fill="#ddd" fill-opacity=".141" stroke="#000" stroke-opacity=".02" points="18.333 0 36.667 31.754 0 31.754 18.333 0" transform="translate(0, 127.01705922172) rotate(0, 18.333333333333, 15.877132402715)"/><polyline fill="#222" fill-opacity=".098" stroke="#000" stroke-opacity=".02" points="18.333 0 36.667 31.754 0 31.754 18.333 0" transform="translate(18.333333333333, 127.01705922172) rotate(180, 18.333333333333, 15.877132402715)"/><polyline fill="#222" fill-opacity=".115" stroke="#000" stroke-opacity=".02" points="18.333 0 36.667 31.754 0 31.754 18.333 0" transform="translate(36.666666666667, 127.01705922172) rotate(0, 18.333333333333, 15.877132402715)"/><polyline fill="#ddd" fill-opacity=".02" stroke="#000" stroke-opacity=".02" points="18.333 0 36.667 31.754 0 31.754 18.333 0" transform="translate(55, 127.01705922172) rotate(180, 18.333333333333, 15.877132402715)"/><polyline fill="#ddd" fill-opacity=".072" stroke="#000" stroke-opacity=".02" points="18.333 0 36.667 31.754 0 31.754 18.333 0" transform="translate(73.333333333333, 127.01705922172) rotate(0, 18.333333333333, 15.877132402715)"/><polyline fill="#222" fill-opacity=".098" stroke="#000" stroke-opacity=".02" points="18.333 0 36.667 31.754 0 31.754 18.333 0" transform="translate(-18.333333333333, 158.77132402715) rotate(0, 18.333333333333, 15.877132402715)"/><polyline fill="#222" fill-opacity=".098" stroke="#000" stroke-opacity=".02" points="18.333 0 36.667 31.754 0 31.754 18.333 0" transform="translate(91.666666666667, 158.77132402715) rotate(0, 18.333333333333, 15.877132402715)"/><polyline fill="#222" fill-opacity=".115" stroke="#000" stroke-opacity=".02" points="18.333 0 36.667 31.754 0 31.754 18.333 0" transform="translate(0, 158.77132402715) rotate(180, 18.333333333333, 15.877132402715)"/><polyline fill="#222" fill-opacity=".046" stroke="#000" stroke-opacity=".02" points="18.333 0 36.667 31.754 0 31.754 18.333 0" transform="translate(18.333333333333, 158.77132402715) rotate(0, 18.333333333333, 15.877132402715)"/><polyline fill="#222" fill-opacity=".063" stroke="#000" stroke-opacity=".02" points="18.333 0 36.667 31.754 0 31.754 18.333 0" transform="translate(36.666666666667, 158.77132402715) rotate(180, 18.333333333333, 15.877132402715)"/><polyline fill="#ddd" fill-opacity=".055" stroke="#000" stroke-opacity=".02" points="18.333 0 36.667 31.754 0 31.754 18.333 0" transform="translate(55, 158.77132402715) rotate(0, 18.333333333333, 15.877132402715)"/><polyline fill="#222" fill-opacity=".133" stroke="#000" stroke-opacity=".02" points="18.333 0 36.667 31.754 0 31.754 18.333 0" transform="translate(73.333333333333, 158.77132402715) rotate(180, 18.333333333333, 15.877132402715)"/></svg>