<svg xmlns="http://www.w3.org/2000/svg" width="240" height="240"><rect width="100%" height="100%" x="0" y="0" fill="#DFE6E9"/><rect width="40" height="40" x="0" y="0" fill="#222" fill-opacity=".098" stroke="#000" stroke-opacity=".02"/><rect width="40" height="40" x="40" y="0" fill="#222" fill-opacity=".029" stroke="#000" stroke-opacity=".02"/><rect width="40" height="40" x="80" y="0" fill="#222" fill-opacity=".046" stroke="#000" stroke-opacity=".02"/><rect width="40" height="40" x="120" y="0" fill="#222" fill-opacity=".115" stroke="#000" stroke-opacity=".02"/><rect width="40" height="40" x="160" y="0" fill="#222" fill-opacity=".115" stroke="#000" stroke-opacity=".02"/><rect width="40" height="40" x="200" y="0" fill="#ddd" fill-opacity=".055" stroke="#000" stroke-opacity=".02"/><rect width="40" height="40" x="0" y="40" fill="#222" fill-opacity=".133" stroke="#000" stroke-opacity=".02"/><rect width="40" height="40" x="40" y="40" fill="#ddd" fill-opacity=".02" stroke="#000" stroke-opacity=".02"/><rect width="40" height="40" x="80" y="40" fill="#222" fill-opacity=".046" stroke="#000" stroke-opacity=".02"/><rect width="40" height="40" x="120" y="40" fill="#222" fill-opacity=".081" stroke="#000" stroke-opacity=".02"/><rect width="40" height="40" x="160" y="40" fill="#ddd" fill-opacity=".037" stroke="#000" stroke-opacity=".02"/><rect width="40" height="40" x="200" y="40" fill="#222" fill-opacity=".029" stroke="#000" stroke-opacity=".02"/><rect width="40" height="40" x="0" y="80" fill="#222" fill-opacity=".046" stroke="#000" stroke-opacity=".02"/><rect width="40" height="40" x="40" y="80" fill="#ddd" fill-opacity=".141" stroke="#000" stroke-opacity=".02"/><rect width="40" height="40" x="80" y="80" fill="#ddd" fill-opacity=".141" stroke="#000" stroke-opacity=".02"/><rect width="40" height="40" x="120" y="80" fill="#222" fill-opacity=".081" stroke="#000" stroke-opacity=".02"/><rect width="40" height="40" x="160" y="80" fill="#ddd" fill-opacity=".055" stroke="#000" stroke-opacity=".02"/><rect width="40" height="40" x="200" y="80" fill="#ddd" fill-opacity=".055" stroke="#000" stroke-opacity=".02"/><rect width="40" height="40" x="0" y="120" fill="#ddd" fill-opacity=".055" stroke="#000" stroke-opacity=".02"/><rect width="40" height="40" x="40" y="120" fill="#222" fill-opacity=".029" stroke="#000" stroke-opacity=".02"/><rect width="40" height="40" x="80" y="120" fill="#222" fill-opacity=".098" stroke="#000" stroke-opacity=".02"/><rect width="40" height="40" x="120" y="120" fill="#ddd" fill-opacity=".107" stroke="#000" stroke-opacity=".02"/><rect width="40" height="40" x="160" y="120" fill="#ddd" fill-opacity=".124" stroke="#000" stroke-opacity=".02"/><rect width="40" height="40" x="200" y="120" fill="#ddd" fill-opacity=".037" stroke="#000" stroke-opacity=".02"/><rect width="40" height="40" x="0" y="160" fill="#ddd" fill-opacity=".037" stroke="#000" stroke-opacity=".02"/><rect width="40" height="40" x="40" y="160" fill="#222" fill-opacity=".046" stroke="#000" stroke-opacity=".02"/><rect width="40" height="40" x="80" y="160" fill="#ddd" fill-opacity=".124" stroke="#000" stroke-opacity=".02"/><rect width="40" height="40" x="120" y="160" fill="#ddd" fill-opacity=".141" stroke="#000" stroke-opacity=".02"/><rect width="40" height="40" x="160" y="160" fill="#222" fill-opacity=".046" stroke="#000" stroke-opacity=".02"/><rect width="40" height="40" x="200" y="160" fill="#222" fill-opacity=".133" stroke="#000" stroke-opacity=".02"/><rect width="40" height="40" x="0" y="200" fill="#ddd" fill-opacity=".072" stroke="#000" stroke-opacity=".02"/><rect width="40" height="40" x="40" y="200" fill="#ddd" fill-opacity=".141" stroke="#000" stroke-opacity=".02"/><rect width="40" height="40" x="80" y="200" fill="#ddd" fill-opacity=".089" stroke="#000" stroke-opacity=".02"/><rect width="40" height="40" x="120" y="200" fill="#ddd" fill-opacity=".02" stroke="#000" stroke-opacity=".02"/><rect width="40" height="40" x="160" y="200" fill="#222" fill-opacity=".029" stroke="#000" stroke-opacity=".02"/><rect width="40" height="40" x="200" y="200" fill="#ddd" fill-opacity=".141" stroke="#000" stroke-opacity=".02"/></svg>