<svg xmlns="http://www.w3.org/2000/svg" width="180" height="108"><rect width="100%" height="100%" x="0" y="0" fill="#00B894"/><path fill="none" stroke="#ddd" d="M0 100 C 31.5 0, 59 0, 90 100 S 149 200, 180 100 S 239 0, 270, 100" style="opacity:.054666666666667;stroke-width:3px" transform="translate(-45, -150)"/><path fill="none" stroke="#ddd" d="M0 100 C 31.5 0, 59 0, 90 100 S 149 200, 180 100 S 239 0, 270, 100" style="opacity:.054666666666667;stroke-width:3px" transform="translate(-45, -42)"/><path fill="none" stroke="#222" d="M0 100 C 31.5 0, 59 0, 90 100 S 149 200, 180 100 S 239 0, 270, 100" style="opacity:.15;stroke-width:3px" transform="translate(-45, -147)"/><path fill="none" stroke="#222" d="M0 100 C 31.5 0, 59 0, 90 100 S 149 200, 180 100 S 239 0, 270, 100" style="opacity:.15;stroke-width:3px" transform="translate(-45, -39)"/><path fill="none" stroke="#ddd" d="M0 100 C 31.5 0, 59 0, 90 100 S 149 200, 180 100 S 239 0, 270, 100" style="opacity:.02;stroke-width:3px" transform="translate(-45, -144)"/><path fill="none" stroke="#ddd" d="M0 100 C 31.5 0, 59 0, 90 100 S 149 200, 180 100 S 239 0, 270, 100" style="opacity:.02;stroke-width:3px" transform="translate(-45, -36)"/><path fill="none" stroke="#ddd" d="M0 100 C 31.5 0, 59 0, 90 100 S 149 200, 180 100 S 239 0, 270, 100" style="opacity:.14133333333333;stroke-width:3px" transform="translate(-45, -141)"/><path fill="none" stroke="#ddd" d="M0 100 C 31.5 0, 59 0, 90 100 S 149 200, 180 100 S 239 0, 270, 100" style="opacity:.14133333333333;stroke-width:3px" transform="translate(-45, -33)"/><path fill="none" stroke="#222" d="M0 100 C 31.5 0, 59 0, 90 100 S 149 200, 180 100 S 239 0, 270, 100" style="opacity:.080666666666667;stroke-width:3px" transform="translate(-45, -138)"/><path fill="none" stroke="#222" d="M0 100 C 31.5 0, 59 0, 90 100 S 149 200, 180 100 S 239 0, 270, 100" style="opacity:.080666666666667;stroke-width:3px" transform="translate(-45, -30)"/><path fill="none" stroke="#ddd" d="M0 100 C 31.5 0, 59 0, 90 100 S 149 200, 180 100 S 239 0, 270, 100" style="opacity:.054666666666667;stroke-width:3px" transform="translate(-45, -135)"/><path fill="none" stroke="#ddd" d="M0 100 C 31.5 0, 59 0, 90 100 S 149 200, 180 100 S 239 0, 270, 100" style="opacity:.054666666666667;stroke-width:3px" transform="translate(-45, -27)"/><path fill="none" stroke="#222" d="M0 100 C 31.5 0, 59 0, 90 100 S 149 200, 180 100 S 239 0, 270, 100" style="opacity:.028666666666667;stroke-width:3px" transform="translate(-45, -132)"/><path fill="none" stroke="#222" d="M0 100 C 31.5 0, 59 0, 90 100 S 149 200, 180 100 S 239 0, 270, 100" style="opacity:.028666666666667;stroke-width:3px" transform="translate(-45, -24)"/><path fill="none" stroke="#222" d="M0 100 C 31.5 0, 59 0, 90 100 S 149 200, 180 100 S 239 0, 270, 100" style="opacity:.098;stroke-width:3px" transform="translate(-45, -129)"/><path fill="none" stroke="#222" d="M0 100 C 31.5 0, 59 0, 90 100 S 149 200, 180 100 S 239 0, 270, 100" style="opacity:.098;stroke-width:3px" transform="translate(-45, -21)"/><path fill="none" stroke="#ddd" d="M0 100 C 31.5 0, 59 0, 90 100 S 149 200, 180 100 S 239 0, 270, 100" style="opacity:.072;stroke-width:3px" transform="translate(-45, -126)"/><path fill="none" stroke="#ddd" d="M0 100 C 31.5 0, 59 0, 90 100 S 149 200, 180 100 S 239 0, 270, 100" style="opacity:.072;stroke-width:3px" transform="translate(-45, -18)"/><path fill="none" stroke="#ddd" d="M0 100 C 31.5 0, 59 0, 90 100 S 149 200, 180 100 S 239 0, 270, 100" style="opacity:.072;stroke-width:3px" transform="translate(-45, -123)"/><path fill="none" stroke="#ddd" d="M0 100 C 31.5 0, 59 0, 90 100 S 149 200, 180 100 S 239 0, 270, 100" style="opacity:.072;stroke-width:3px" transform="translate(-45, -15)"/><path fill="none" stroke="#222" d="M0 100 C 31.5 0, 59 0, 90 100 S 149 200, 180 100 S 239 0, 270, 100" style="opacity:.063333333333333;stroke-width:3px" transform="translate(-45, -120)"/><path fill="none" stroke="#222" d="M0 100 C 31.5 0, 59 0, 90 100 S 149 200, 180 100 S 239 0, 270, 100" style="opacity:.063333333333333;stroke-width:3px" transform="translate(-45, -12)"/><path fill="none" stroke="#222" d="M0 100 C 31.5 0, 59 0, 90 100 S 149 200, 180 100 S 239 0, 270, 100" style="opacity:.046;stroke-width:3px" transform="translate(-45, -117)"/><path fill="none" stroke="#222" d="M0 100 C 31.5 0, 59 0, 90 100 S 149 200, 180 100 S 239 0, 270, 100" style="opacity:.046;stroke-width:3px" transform="translate(-45, -9)"/><path fill="none" stroke="#ddd" d="M0 100 C 31.5 0, 59 0, 90 100 S 149 200, 180 100 S 239 0, 270, 100" style="opacity:.054666666666667;stroke-width:3px" transform="translate(-45, -114)"/><path fill="none" stroke="#ddd" d="M0 100 C 31.5 0, 59 0, 90 100 S 149 200, 180 100 S 239 0, 270, 100" style="opacity:.054666666666667;stroke-width:3px" transform="translate(-45, -6)"/><path fill="none" stroke="#222" d="M0 100 C 31.5 0, 59 0, 90 100 S 149 200, 180 100 S 239 0, 270, 100" style="opacity:.063333333333333;stroke-width:3px" transform="translate(-45, -111)"/><path fill="none" stroke="#222" d="M0 100 C 31.5 0, 59 0, 90 100 S 149 200, 180 100 S 239 0, 270, 100" style="opacity:.063333333333333;stroke-width:3px" transform="translate(-45, -3)"/><path fill="none" stroke="#ddd" d="M0 100 C 31.5 0, 59 0, 90 100 S 149 200, 180 100 S 239 0, 270, 100" style="opacity:.054666666666667;stroke-width:3px" transform="translate(-45, -108)"/><path fill="none" stroke="#ddd" d="M0 100 C 31.5 0, 59 0, 90 100 S 149 200, 180 100 S 239 0, 270, 100" style="opacity:.054666666666667;stroke-width:3px" transform="translate(-45, 0)"/><path fill="none" stroke="#ddd" d="M0 100 C 31.5 0, 59 0, 90 100 S 149 200, 180 100 S 239 0, 270, 100" style="opacity:.089333333333333;stroke-width:3px" transform="translate(-45, -105)"/><path fill="none" stroke="#ddd" d="M0 100 C 31.5 0, 59 0, 90 100 S 149 200, 180 100 S 239 0, 270, 100" style="opacity:.089333333333333;stroke-width:3px" transform="translate(-45, 3)"/><path fill="none" stroke="#ddd" d="M0 100 C 31.5 0, 59 0, 90 100 S 149 200, 180 100 S 239 0, 270, 100" style="opacity:.10666666666667;stroke-width:3px" transform="translate(-45, -102)"/><path fill="none" stroke="#ddd" d="M0 100 C 31.5 0, 59 0, 90 100 S 149 200, 180 100 S 239 0, 270, 100" style="opacity:.10666666666667;stroke-width:3px" transform="translate(-45, 6)"/><path fill="none" stroke="#222" d="M0 100 C 31.5 0, 59 0, 90 100 S 149 200, 180 100 S 239 0, 270, 100" style="opacity:.046;stroke-width:3px" transform="translate(-45, -99)"/><path fill="none" stroke="#222" d="M0 100 C 31.5 0, 59 0, 90 100 S 149 200, 180 100 S 239 0, 270, 100" style="opacity:.046;stroke-width:3px" transform="translate(-45, 9)"/><path fill="none" stroke="#ddd" d="M0 100 C 31.5 0, 59 0, 90 100 S 149 200, 180 100 S 239 0, 270, 100" style="opacity:.10666666666667;stroke-width:3px" transform="translate(-45, -96)"/><path fill="none" stroke="#ddd" d="M0 100 C 31.5 0, 59 0, 90 100 S 149 200, 180 100 S 239 0, 270, 100" style="opacity:.10666666666667;stroke-width:3px" transform="translate(-45, 12)"/><path fill="none" stroke="#222" d="M0 100 C 31.5 0, 59 0, 90 100 S 149 200, 180 100 S 239 0, 270, 100" style="opacity:.046;stroke-width:3px" transform="translate(-45, -93)"/><path fill="none" stroke="#222" d="M0 100 C 31.5 0, 59 0, 90 100 S 149 200, 180 100 S 239 0, 270, 100" style="opacity:.046;stroke-width:3px" transform="translate(-45, 15)"/><path fill="none" stroke="#ddd" d="M0 100 C 31.5 0, 59 0, 90 100 S 149 200, 180 100 S 239 0, 270, 100" style="opacity:.054666666666667;stroke-width:3px" transform="translate(-45, -90)"/><path fill="none" stroke="#ddd" d="M0 100 C 31.5 0, 59 0, 90 100 S 149 200, 180 100 S 239 0, 270, 100" style="opacity:.054666666666667;stroke-width:3px" transform="translate(-45, 18)"/><path fill="none" stroke="#222" d="M0 100 C 31.5 0, 59 0, 90 100 S 149 200, 180 100 S 239 0, 270, 100" style="opacity:.028666666666667;stroke-width:3px" transform="translate(-45, -87)"/><path fill="none" stroke="#222" d="M0 100 C 31.5 0, 59 0, 90 100 S 149 200, 180 100 S 239 0, 270, 100" style="opacity:.028666666666667;stroke-width:3px" transform="translate(-45, 21)"/><path fill="none" stroke="#ddd" d="M0 100 C 31.5 0, 59 0, 90 100 S 149 200, 180 100 S 239 0, 270, 100" style="opacity:.089333333333333;stroke-width:3px" transform="translate(-45, -84)"/><path fill="none" stroke="#ddd" d="M0 100 C 31.5 0, 59 0, 90 100 S 149 200, 180 100 S 239 0, 270, 100" style="opacity:.089333333333333;stroke-width:3px" transform="translate(-45, 24)"/><path fill="none" stroke="#222" d="M0 100 C 31.5 0, 59 0, 90 100 S 149 200, 180 100 S 239 0, 270, 100" style="opacity:.11533333333333;stroke-width:3px" transform="translate(-45, -81)"/><path fill="none" stroke="#222" d="M0 100 C 31.5 0, 59 0, 90 100 S 149 200, 180 100 S 239 0, 270, 100" style="opacity:.11533333333333;stroke-width:3px" transform="translate(-45, 27)"/><path fill="none" stroke="#222" d="M0 100 C 31.5 0, 59 0, 90 100 S 149 200, 180 100 S 239 0, 270, 100" style="opacity:.080666666666667;stroke-width:3px" transform="translate(-45, -78)"/><path fill="none" stroke="#222" d="M0 100 C 31.5 0, 59 0, 90 100 S 149 200, 180 100 S 239 0, 270, 100" style="opacity:.080666666666667;stroke-width:3px" transform="translate(-45, 30)"/><path fill="none" stroke="#222" d="M0 100 C 31.5 0, 59 0, 90 100 S 149 200, 180 100 S 239 0, 270, 100" style="opacity:.098;stroke-width:3px" transform="translate(-45, -75)"/><path fill="none" stroke="#222" d="M0 100 C 31.5 0, 59 0, 90 100 S 149 200, 180 100 S 239 0, 270, 100" style="opacity:.098;stroke-width:3px" transform="translate(-45, 33)"/><path fill="none" stroke="#222" d="M0 100 C 31.5 0, 59 0, 90 100 S 149 200, 180 100 S 239 0, 270, 100" style="opacity:.098;stroke-width:3px" transform="translate(-45, -72)"/><path fill="none" stroke="#222" d="M0 100 C 31.5 0, 59 0, 90 100 S 149 200, 180 100 S 239 0, 270, 100" style="opacity:.098;stroke-width:3px" transform="translate(-45, 36)"/><path fill="none" stroke="#ddd" d="M0 100 C 31.5 0, 59 0, 90 100 S 149 200, 180 100 S 239 0, 270, 100" style="opacity:.124;stroke-width:3px" transform="translate(-45, -69)"/><path fill="none" stroke="#ddd" d="M0 100 C 31.5 0, 59 0, 90 100 S 149 200, 180 100 S 239 0, 270, 100" style="opacity:.124;stroke-width:3px" transform="translate(-45, 39)"/><path fill="none" stroke="#ddd" d="M0 100 C 31.5 0, 59 0, 90 100 S 149 200, 180 100 S 239 0, 270, 100" style="opacity:.02;stroke-width:3px" transform="translate(-45, -66)"/><path fill="none" stroke="#ddd" d="M0 100 C 31.5 0, 59 0, 90 100 S 149 200, 180 100 S 239 0, 270, 100" style="opacity:.02;stroke-width:3px" transform="translate(-45, 42)"/><path fill="none" stroke="#222" d="M0 100 C 31.5 0, 59 0, 90 100 S 149 200, 180 100 S 239 0, 270, 100" style="opacity:.11533333333333;stroke-width:3px" transform="translate(-45, -63)"/><path fill="none" stroke="#222" d="M0 100 C 31.5 0, 59 0, 90 100 S 149 200, 180 100 S 239 0, 270, 100" style="opacity:.11533333333333;stroke-width:3px" transform="translate(-45, 45)"/><path fill="none" stroke="#ddd" d="M0 100 C 31.5 0, 59 0, 90 100 S 149 200, 180 100 S 239 0, 270, 100" style="opacity:.02;stroke-width:3px" transform="translate(-45, -60)"/><path fill="none" stroke="#ddd" d="M0 100 C 31.5 0, 59 0, 90 100 S 149 200, 180 100 S 239 0, 270, 100" style="opacity:.02;stroke-width:3px" transform="translate(-45, 48)"/><path fill="none" stroke="#222" d="M0 100 C 31.5 0, 59 0, 90 100 S 149 200, 180 100 S 239 0, 270, 100" style="opacity:.046;stroke-width:3px" transform="translate(-45, -57)"/><path fill="none" stroke="#222" d="M0 100 C 31.5 0, 59 0, 90 100 S 149 200, 180 100 S 239 0, 270, 100" style="opacity:.046;stroke-width:3px" transform="translate(-45, 51)"/><path fill="none" stroke="#222" d="M0 100 C 31.5 0, 59 0, 90 100 S 149 200, 180 100 S 239 0, 270, 100" style="opacity:.11533333333333;stroke-width:3px" transform="translate(-45, -54)"/><path fill="none" stroke="#222" d="M0 100 C 31.5 0, 59 0, 90 100 S 149 200, 180 100 S 239 0, 270, 100" style="opacity:.11533333333333;stroke-width:3px" transform="translate(-45, 54)"/><path fill="none" stroke="#ddd" d="M0 100 C 31.5 0, 59 0, 90 100 S 149 200, 180 100 S 239 0, 270, 100" style="opacity:.072;stroke-width:3px" transform="translate(-45, -51)"/><path fill="none" stroke="#ddd" d="M0 100 C 31.5 0, 59 0, 90 100 S 149 200, 180 100 S 239 0, 270, 100" style="opacity:.072;stroke-width:3px" transform="translate(-45, 57)"/><path fill="none" stroke="#222" d="M0 100 C 31.5 0, 59 0, 90 100 S 149 200, 180 100 S 239 0, 270, 100" style="opacity:.028666666666667;stroke-width:3px" transform="translate(-45, -48)"/><path fill="none" stroke="#222" d="M0 100 C 31.5 0, 59 0, 90 100 S 149 200, 180 100 S 239 0, 270, 100" style="opacity:.028666666666667;stroke-width:3px" transform="translate(-45, 60)"/><path fill="none" stroke="#222" d="M0 100 C 31.5 0, 59 0, 90 100 S 149 200, 180 100 S 239 0, 270, 100" style="opacity:.13266666666667;stroke-width:3px" transform="translate(-45, -45)"/><path fill="none" stroke="#222" d="M0 100 C 31.5 0, 59 0, 90 100 S 149 200, 180 100 S 239 0, 270, 100" style="opacity:.13266666666667;stroke-width:3px" transform="translate(-45, 63)"/></svg>