<svg xmlns="http://www.w3.org/2000/svg" width="442" height="442"><rect width="100%" height="100%" x="0" y="0" fill="#6C5CE7"/><rect width="100%" height="11" x="0" y="13" fill="#ddd" opacity=".072"/><rect width="100%" height="8" x="0" y="39" fill="#222" opacity=".046"/><rect width="100%" height="5" x="0" y="58" fill="#ddd" opacity=".02"/><rect width="100%" height="5" x="0" y="68" fill="#ddd" opacity=".02"/><rect width="100%" height="9" x="0" y="93" fill="#ddd" opacity=".055"/><rect width="100%" height="11" x="0" y="109" fill="#ddd" opacity=".072"/><rect width="100%" height="5" x="0" y="131" fill="#ddd" opacity=".02"/><rect width="100%" height="17" x="0" y="154" fill="#ddd" opacity=".124"/><rect width="100%" height="20" x="0" y="180" fill="#222" opacity=".15"/><rect width="100%" height="8" x="0" y="214" fill="#222" opacity=".046"/><rect width="100%" height="5" x="0" y="234" fill="#ddd" opacity=".02"/><rect width="100%" height="10" x="0" y="258" fill="#222" opacity=".063"/><rect width="100%" height="15" x="0" y="279" fill="#ddd" opacity=".107"/><rect width="100%" height="7" x="0" y="312" fill="#ddd" opacity=".037"/><rect width="100%" height="12" x="0" y="324" fill="#222" opacity=".081"/><rect width="100%" height="11" x="0" y="355" fill="#ddd" opacity=".072"/><rect width="100%" height="12" x="0" y="384" fill="#222" opacity=".081"/><rect width="100%" height="10" x="0" y="403" fill="#222" opacity=".063"/><rect width="100%" height="11" x="0" y="431" fill="#ddd" opacity=".072"/><rect width="11" height="100%" x="13" y="0" fill="#ddd" opacity=".072"/><rect width="8" height="100%" x="39" y="0" fill="#222" opacity=".046"/><rect width="5" height="100%" x="58" y="0" fill="#ddd" opacity=".02"/><rect width="5" height="100%" x="68" y="0" fill="#ddd" opacity=".02"/><rect width="9" height="100%" x="93" y="0" fill="#ddd" opacity=".055"/><rect width="11" height="100%" x="109" y="0" fill="#ddd" opacity=".072"/><rect width="5" height="100%" x="131" y="0" fill="#ddd" opacity=".02"/><rect width="17" height="100%" x="154" y="0" fill="#ddd" opacity=".124"/><rect width="20" height="100%" x="180" y="0" fill="#222" opacity=".15"/><rect width="8" height="100%" x="214" y="0" fill="#222" opacity=".046"/><rect width="5" height="100%" x="234" y="0" fill="#ddd" opacity=".02"/><rect width="10" height="100%" x="258" y="0" fill="#222" opacity=".063"/><rect width="15" height="100%" x="279" y="0" fill="#ddd" opacity=".107"/><rect width="7" height="100%" x="312" y="0" fill="#ddd" opacity=".037"/><rect width="12" height="100%" x="324" y="0" fill="#222" opacity=".081"/><rect width="11" height="100%" x="355" y="0" fill="#ddd" opacity=".072"/><rect width="12" height="100%" x="384" y="0" fill="#222" opacity=".081"/><rect width="10" height="100%" x="403" y="0" fill="#222" opacity=".063"/><rect width="11" height="100%" x="431" y="0" fill="#ddd" opacity=".072"/></svg>