<svg xmlns="http://www.w3.org/2000/svg" width="280" height="280"><rect width="100%" height="100%" x="0" y="0" fill="#0984E3"/><rect width="46.667" height="46.667" x="0" y="0" fill="#222" fill-opacity=".115" stroke="#000" stroke-opacity=".02"/><rect width="46.667" height="46.667" x="46.667" y="0" fill="#222" fill-opacity=".029" stroke="#000" stroke-opacity=".02"/><rect width="46.667" height="46.667" x="93.333" y="0" fill="#222" fill-opacity=".081" stroke="#000" stroke-opacity=".02"/><rect width="46.667" height="46.667" x="140" y="0" fill="#222" fill-opacity=".098" stroke="#000" stroke-opacity=".02"/><rect width="46.667" height="46.667" x="186.667" y="0" fill="#ddd" fill-opacity=".124" stroke="#000" stroke-opacity=".02"/><rect width="46.667" height="46.667" x="233.333" y="0" fill="#ddd" fill-opacity=".107" stroke="#000" stroke-opacity=".02"/><rect width="46.667" height="46.667" x="0" y="46.667" fill="#ddd" fill-opacity=".072" stroke="#000" stroke-opacity=".02"/><rect width="46.667" height="46.667" x="46.667" y="46.667" fill="#ddd" fill-opacity=".089" stroke="#000" stroke-opacity=".02"/><rect width="46.667" height="46.667" x="93.333" y="46.667" fill="#ddd" fill-opacity=".107" stroke="#000" stroke-opacity=".02"/><rect width="46.667" height="46.667" x="140" y="46.667" fill="#222" fill-opacity=".133" stroke="#000" stroke-opacity=".02"/><rect width="46.667" height="46.667" x="186.667" y="46.667" fill="#222" fill-opacity=".15" stroke="#000" stroke-opacity=".02"/><rect width="46.667" height="46.667" x="233.333" y="46.667" fill="#222" fill-opacity=".133" stroke="#000" stroke-opacity=".02"/><rect width="46.667" height="46.667" x="0" y="93.333" fill="#ddd" fill-opacity=".072" stroke="#000" stroke-opacity=".02"/><rect width="46.667" height="46.667" x="46.667" y="93.333" fill="#ddd" fill-opacity=".037" stroke="#000" stroke-opacity=".02"/><rect width="46.667" height="46.667" x="93.333" y="93.333" fill="#222" fill-opacity=".15" stroke="#000" stroke-opacity=".02"/><rect width="46.667" height="46.667" x="140" y="93.333" fill="#222" fill-opacity=".115" stroke="#000" stroke-opacity=".02"/><rect width="46.667" height="46.667" x="186.667" y="93.333" fill="#222" fill-opacity=".133" stroke="#000" stroke-opacity=".02"/><rect width="46.667" height="46.667" x="233.333" y="93.333" fill="#222" fill-opacity=".098" stroke="#000" stroke-opacity=".02"/><rect width="46.667" height="46.667" x="0" y="140" fill="#222" fill-opacity=".133" stroke="#000" stroke-opacity=".02"/><rect width="46.667" height="46.667" x="46.667" y="140" fill="#ddd" fill-opacity=".089" stroke="#000" stroke-opacity=".02"/><rect width="46.667" height="46.667" x="93.333" y="140" fill="#222" fill-opacity=".098" stroke="#000" stroke-opacity=".02"/><rect width="46.667" height="46.667" x="140" y="140" fill="#222" fill-opacity=".063" stroke="#000" stroke-opacity=".02"/><rect width="46.667" height="46.667" x="186.667" y="140" fill="#ddd" fill-opacity=".072" stroke="#000" stroke-opacity=".02"/><rect width="46.667" height="46.667" x="233.333" y="140" fill="#222" fill-opacity=".029" stroke="#000" stroke-opacity=".02"/><rect width="46.667" height="46.667" x="0" y="186.667" fill="#222" fill-opacity=".046" stroke="#000" stroke-opacity=".02"/><rect width="46.667" height="46.667" x="46.667" y="186.667" fill="#ddd" fill-opacity=".037" stroke="#000" stroke-opacity=".02"/><rect width="46.667" height="46.667" x="93.333" y="186.667" fill="#ddd" fill-opacity=".107" stroke="#000" stroke-opacity=".02"/><rect width="46.667" height="46.667" x="140" y="186.667" fill="#ddd" fill-opacity=".089" stroke="#000" stroke-opacity=".02"/><rect width="46.667" height="46.667" x="186.667" y="186.667" fill="#ddd" fill-opacity=".02" stroke="#000" stroke-opacity=".02"/><rect width="46.667" height="46.667" x="233.333" y="186.667" fill="#222" fill-opacity=".15" stroke="#000" stroke-opacity=".02"/><rect width="46.667" height="46.667" x="0" y="233.333" fill="#222" fill-opacity=".029" stroke="#000" stroke-opacity=".02"/><rect width="46.667" height="46.667" x="46.667" y="233.333" fill="#ddd" fill-opacity=".02" stroke="#000" stroke-opacity=".02"/><rect width="46.667" height="46.667" x="93.333" y="233.333" fill="#222" fill-opacity=".063" stroke="#000" stroke-opacity=".02"/><rect width="46.667" height="46.667" x="140" y="233.333" fill="#ddd" fill-opacity=".037" stroke="#000" stroke-opacity=".02"/><rect width="46.667" height="46.667" x="186.667" y="233.333" fill="#ddd" fill-opacity=".107" stroke="#000" stroke-opacity=".02"/><rect width="46.667" height="46.667" x="233.333" y="233.333" fill="#222" fill-opacity=".098" stroke="#000" stroke-opacity=".02"/></svg>