<svg xmlns="http://www.w3.org/2000/svg" width="273" height="273"><rect width="100%" height="100%" x="0" y="0" fill="#74B9FF"/><rect width="35.467" height="35.467" x="2.533" y="2.533" fill="none" stroke="#ddd" style="opacity:.037333333333333;stroke-width:5.0666666666667px"/><rect width="15.2" height="15.2" x="12.667" y="12.667" fill="none" stroke="#222" style="opacity:.13266666666667;stroke-width:5.0666666666667px"/><rect width="35.467" height="35.467" x="48.133" y="2.533" fill="none" stroke="#222" style="opacity:.11533333333333;stroke-width:5.0666666666667px"/><rect width="15.2" height="15.2" x="58.267" y="12.667" fill="none" stroke="#ddd" style="opacity:.037333333333333;stroke-width:5.0666666666667px"/><rect width="35.467" height="35.467" x="93.733" y="2.533" fill="none" stroke="#ddd" style="opacity:.124;stroke-width:5.0666666666667px"/><rect width="15.2" height="15.2" x="103.867" y="12.667" fill="none" stroke="#ddd" style="opacity:.14133333333333;stroke-width:5.0666666666667px"/><rect width="35.467" height="35.467" x="139.333" y="2.533" fill="none" stroke="#222" style="opacity:.11533333333333;stroke-width:5.0666666666667px"/><rect width="15.2" height="15.2" x="149.467" y="12.667" fill="none" stroke="#222" style="opacity:.080666666666667;stroke-width:5.0666666666667px"/><rect width="35.467" height="35.467" x="184.933" y="2.533" fill="none" stroke="#ddd" style="opacity:.10666666666667;stroke-width:5.0666666666667px"/><rect width="15.2" height="15.2" x="195.067" y="12.667" fill="none" stroke="#222" style="opacity:.098;stroke-width:5.0666666666667px"/><rect width="35.467" height="35.467" x="230.533" y="2.533" fill="none" stroke="#ddd" style="opacity:.14133333333333;stroke-width:5.0666666666667px"/><rect width="15.2" height="15.2" x="240.667" y="12.667" fill="none" stroke="#222" style="opacity:.080666666666667;stroke-width:5.0666666666667px"/><rect width="35.467" height="35.467" x="2.533" y="48.133" fill="none" stroke="#222" style="opacity:.080666666666667;stroke-width:5.0666666666667px"/><rect width="15.2" height="15.2" x="12.667" y="58.267" fill="none" stroke="#ddd" style="opacity:.054666666666667;stroke-width:5.0666666666667px"/><rect width="35.467" height="35.467" x="48.133" y="48.133" fill="none" stroke="#ddd" style="opacity:.037333333333333;stroke-width:5.0666666666667px"/><rect width="15.2" height="15.2" x="58.267" y="58.267" fill="none" stroke="#222" style="opacity:.028666666666667;stroke-width:5.0666666666667px"/><rect width="35.467" height="35.467" x="93.733" y="48.133" fill="none" stroke="#ddd" style="opacity:.089333333333333;stroke-width:5.0666666666667px"/><rect width="15.2" height="15.2" x="103.867" y="58.267" fill="none" stroke="#222" style="opacity:.028666666666667;stroke-width:5.0666666666667px"/><rect width="35.467" height="35.467" x="139.333" y="48.133" fill="none" stroke="#222" style="opacity:.028666666666667;stroke-width:5.0666666666667px"/><rect width="15.2" height="15.2" x="149.467" y="58.267" fill="none" stroke="#222" style="opacity:.11533333333333;stroke-width:5.0666666666667px"/><rect width="35.467" height="35.467" x="184.933" y="48.133" fill="none" stroke="#222" style="opacity:.11533333333333;stroke-width:5.0666666666667px"/><rect width="15.2" height="15.2" x="195.067" y="58.267" fill="none" stroke="#ddd" style="opacity:.124;stroke-width:5.0666666666667px"/><rect width="35.467" height="35.467" x="230.533" y="48.133" fill="none" stroke="#ddd" style="opacity:.037333333333333;stroke-width:5.0666666666667px"/><rect width="15.2" height="15.2" x="240.667" y="58.267" fill="none" stroke="#222" style="opacity:.15;stroke-width:5.0666666666667px"/><rect width="35.467" height="35.467" x="2.533" y="93.733" fill="none" stroke="#ddd" style="opacity:.037333333333333;stroke-width:5.0666666666667px"/><rect width="15.2" height="15.2" x="12.667" y="103.867" fill="none" stroke="#222" style="opacity:.063333333333333;stroke-width:5.0666666666667px"/><rect width="35.467" height="35.467" x="48.133" y="93.733" fill="none" stroke="#222" style="opacity:.15;stroke-width:5.0666666666667px"/><rect width="15.2" height="15.2" x="58.267" y="103.867" fill="none" stroke="#ddd" style="opacity:.02;stroke-width:5.0666666666667px"/><rect width="35.467" height="35.467" x="93.733" y="93.733" fill="none" stroke="#222" style="opacity:.098;stroke-width:5.0666666666667px"/><rect width="15.2" height="15.2" x="103.867" y="103.867" fill="none" stroke="#ddd" style="opacity:.14133333333333;stroke-width:5.0666666666667px"/><rect width="35.467" height="35.467" x="139.333" y="93.733" fill="none" stroke="#222" style="opacity:.028666666666667;stroke-width:5.0666666666667px"/><rect width="15.2" height="15.2" x="149.467" y="103.867" fill="none" stroke="#ddd" style="opacity:.072;stroke-width:5.0666666666667px"/><rect width="35.467" height="35.467" x="184.933" y="93.733" fill="none" stroke="#222" style="opacity:.11533333333333;stroke-width:5.0666666666667px"/><rect width="15.2" height="15.2" x="195.067" y="103.867" fill="none" stroke="#ddd" style="opacity:.02;stroke-width:5.0666666666667px"/><rect width="35.467" height="35.467" x="230.533" y="93.733" fill="none" stroke="#222" style="opacity:.046;stroke-width:5.0666666666667px"/><rect width="15.2" height="15.2" x="240.667" y="103.867" fill="none" stroke="#222" style="opacity:.046;stroke-width:5.0666666666667px"/><rect width="35.467" height="35.467" x="2.533" y="139.333" fill="none" stroke="#222" style="opacity:.080666666666667;stroke-width:5.0666666666667px"/><rect width="15.2" height="15.2" x="12.667" y="149.467" fill="none" stroke="#222" style="opacity:.080666666666667;stroke-width:5.0666666666667px"/><rect width="35.467" height="35.467" x="48.133" y="139.333" fill="none" stroke="#ddd" style="opacity:.02;stroke-width:5.0666666666667px"/><rect width="15.2" height="15.2" x="58.267" y="149.467" fill="none" stroke="#222" style="opacity:.13266666666667;stroke-width:5.0666666666667px"/><rect width="35.467" height="35.467" x="93.733" y="139.333" fill="none" stroke="#222" style="opacity:.13266666666667;stroke-width:5.0666666666667px"/><rect width="15.2" height="15.2" x="103.867" y="149.467" fill="none" stroke="#ddd" style="opacity:.02;stroke-width:5.0666666666667px"/><rect width="35.467" height="35.467" x="139.333" y="139.333" fill="none" stroke="#222" style="opacity:.080666666666667;stroke-width:5.0666666666667px"/><rect width="15.2" height="15.2" x="149.467" y="149.467" fill="none" stroke="#222" style="opacity:.080666666666667;stroke-width:5.0666666666667px"/><rect width="35.467" height="35.467" x="184.933" y="139.333" fill="none" stroke="#222" style="opacity:.046;stroke-width:5.0666666666667px"/><rect width="15.2" height="15.2" x="195.067" y="149.467" fill="none" stroke="#222" style="opacity:.046;stroke-width:5.0666666666667px"/><rect width="35.467" height="35.467" x="230.533" y="139.333" fill="none" stroke="#ddd" style="opacity:.02;stroke-width:5.0666666666667px"/><rect width="15.2" height="15.2" x="240.667" y="149.467" fill="none" stroke="#222" style="opacity:.11533333333333;stroke-width:5.0666666666667px"/><rect width="35.467" height="35.467" x="2.533" y="184.933" fill="none" stroke="#ddd" style="opacity:.072;stroke-width:5.0666666666667px"/><rect width="15.2" height="15.2" x="12.667" y="195.067" fill="none" stroke="#222" style="opacity:.028666666666667;stroke-width:5.0666666666667px"/><rect width="35.467" height="35.467" x="48.133" y="184.933" fill="none" stroke="#ddd" style="opacity:.14133333333333;stroke-width:5.0666666666667px"/><rect width="15.2" height="15.2" x="58.267" y="195.067" fill="none" stroke="#222" style="opacity:.098;stroke-width:5.0666666666667px"/><rect width="35.467" height="35.467" x="93.733" y="184.933" fill="none" stroke="#ddd" style="opacity:.02;stroke-width:5.0666666666667px"/><rect width="15.2" height="15.2" x="103.867" y="195.067" fill="none" stroke="#222" style="opacity:.15;stroke-width:5.0666666666667px"/><rect width="35.467" height="35.467" x="139.333" y="184.933" fill="none" stroke="#222" style="opacity:.063333333333333;stroke-width:5.0666666666667px"/><rect width="15.2" height="15.2" x="149.467" y="195.067" fill="none" stroke="#ddd" style="opacity:.037333333333333;stroke-width:5.0666666666667px"/><rect width="35.467" height="35.467" x="184.933" y="184.933" fill="none" stroke="#222" style="opacity:.15;stroke-width:5.0666666666667px"/><rect width="15.2" height="15.2" x="195.067" y="195.067" fill="none" stroke="#ddd" style="opacity:.037333333333333;stroke-width:5.0666666666667px"/><rect width="35.467" height="35.467" x="230.533" y="184.933" fill="none" stroke="#ddd" style="opacity:.124;stroke-width:5.0666666666667px"/><rect width="15.2" height="15.2" x="240.667" y="195.067" fill="none" stroke="#222" style="opacity:.11533333333333;stroke-width:5.0666666666667px"/><rect width="35.467" height="35.467" x="2.533" y="230.533" fill="none" stroke="#222" style="opacity:.11533333333333;stroke-width:5.0666666666667px"/><rect width="15.2" height="15.2" x="12.667" y="240.667" fill="none" stroke="#222" style="opacity:.028666666666667;stroke-width:5.0666666666667px"/><rect width="35.467" height="35.467" x="48.133" y="230.533" fill="none" stroke="#222" style="opacity:.028666666666667;stroke-width:5.0666666666667px"/><rect width="15.2" height="15.2" x="58.267" y="240.667" fill="none" stroke="#ddd" style="opacity:.089333333333333;stroke-width:5.0666666666667px"/><rect width="35.467" height="35.467" x="93.733" y="230.533" fill="none" stroke="#222" style="opacity:.028666666666667;stroke-width:5.0666666666667px"/><rect width="15.2" height="15.2" x="103.867" y="240.667" fill="none" stroke="#ddd" style="opacity:.037333333333333;stroke-width:5.0666666666667px"/><rect width="35.467" height="35.467" x="139.333" y="230.533" fill="none" stroke="#ddd" style="opacity:.054666666666667;stroke-width:5.0666666666667px"/><rect width="15.2" height="15.2" x="149.467" y="240.667" fill="none" stroke="#222" style="opacity:.080666666666667;stroke-width:5.0666666666667px"/><rect width="35.467" height="35.467" x="184.933" y="230.533" fill="none" stroke="#222" style="opacity:.080666666666667;stroke-width:5.0666666666667px"/><rect width="15.2" height="15.2" x="195.067" y="240.667" fill="none" stroke="#ddd" style="opacity:.14133333333333;stroke-width:5.0666666666667px"/><rect width="35.467" height="35.467" x="230.533" y="230.533" fill="none" stroke="#222" style="opacity:.098;stroke-width:5.0666666666667px"/><rect width="15.2" height="15.2" x="240.667" y="240.667" fill="none" stroke="#ddd" style="opacity:.10666666666667;stroke-width:5.0666666666667px"/></svg>