<svg xmlns="http://www.w3.org/2000/svg" width="122" height="71"><rect width="100%" height="100%" x="0" y="0" fill="#A29BFE"/><polyline fill="#ddd" fill-opacity=".037" stroke="#000" stroke-opacity=".02" points="0 0 20.496 11.833 0 23.667 0 0" transform="translate(0, -11.833333333333) rotate(180, 10.247967278116, 11.833333333333)"/><polyline fill="#ddd" fill-opacity=".037" stroke="#000" stroke-opacity=".02" points="0 0 20.496 11.833 0 23.667 0 0" transform="translate(0, 59.166666666667) rotate(180, 10.247967278116, 11.833333333333)"/><polyline fill="#ddd" fill-opacity=".124" stroke="#000" stroke-opacity=".02" points="0 0 20.496 11.833 0 23.667 0 0" transform="translate(20.495934556232, -11.833333333333) rotate(0, 10.247967278116, 11.833333333333)"/><polyline fill="#ddd" fill-opacity=".124" stroke="#000" stroke-opacity=".02" points="0 0 20.496 11.833 0 23.667 0 0" transform="translate(20.495934556232, 59.166666666667) rotate(0, 10.247967278116, 11.833333333333)"/><polyline fill="#ddd" fill-opacity=".072" stroke="#000" stroke-opacity=".02" points="0 0 20.496 11.833 0 23.667 0 0" transform="translate(40.991869112463, -11.833333333333) rotate(180, 10.247967278116, 11.833333333333)"/><polyline fill="#ddd" fill-opacity=".072" stroke="#000" stroke-opacity=".02" points="0 0 20.496 11.833 0 23.667 0 0" transform="translate(40.991869112463, 59.166666666667) rotate(180, 10.247967278116, 11.833333333333)"/><polyline fill="#222" fill-opacity=".133" stroke="#000" stroke-opacity=".02" points="0 0 20.496 11.833 0 23.667 0 0" transform="translate(61.487803668695, -11.833333333333) rotate(0, 10.247967278116, 11.833333333333)"/><polyline fill="#222" fill-opacity=".133" stroke="#000" stroke-opacity=".02" points="0 0 20.496 11.833 0 23.667 0 0" transform="translate(61.487803668695, 59.166666666667) rotate(0, 10.247967278116, 11.833333333333)"/><polyline fill="#ddd" fill-opacity=".124" stroke="#000" stroke-opacity=".02" points="0 0 20.496 11.833 0 23.667 0 0" transform="translate(81.983738224927, -11.833333333333) rotate(180, 10.247967278116, 11.833333333333)"/><polyline fill="#ddd" fill-opacity=".124" stroke="#000" stroke-opacity=".02" points="0 0 20.496 11.833 0 23.667 0 0" transform="translate(81.983738224927, 59.166666666667) rotate(180, 10.247967278116, 11.833333333333)"/><polyline fill="#ddd" fill-opacity=".02" stroke="#000" stroke-opacity=".02" points="0 0 20.496 11.833 0 23.667 0 0" transform="translate(102.47967278116, -11.833333333333) rotate(0, 10.247967278116, 11.833333333333)"/><polyline fill="#ddd" fill-opacity=".02" stroke="#000" stroke-opacity=".02" points="0 0 20.496 11.833 0 23.667 0 0" transform="translate(102.47967278116, 59.166666666667) rotate(0, 10.247967278116, 11.833333333333)"/><polyline fill="#222" fill-opacity=".133" stroke="#000" stroke-opacity=".02" points="0 0 20.496 11.833 0 23.667 0 0" transform="translate(0, 0) rotate(0, 10.247967278116, 11.833333333333)"/><polyline fill="#222" fill-opacity=".133" stroke="#000" stroke-opacity=".02" points="0 0 20.496 11.833 0 23.667 0 0" transform="translate(20.495934556232, 0) rotate(180, 10.247967278116, 11.833333333333)"/><polyline fill="#222" fill-opacity=".115" stroke="#000" stroke-opacity=".02" points="0 0 20.496 11.833 0 23.667 0 0" transform="translate(40.991869112463, 0) rotate(0, 10.247967278116, 11.833333333333)"/><polyline fill="#222" fill-opacity=".063" stroke="#000" stroke-opacity=".02" points="0 0 20.496 11.833 0 23.667 0 0" transform="translate(61.487803668695, 0) rotate(180, 10.247967278116, 11.833333333333)"/><polyline fill="#ddd" fill-opacity=".037" stroke="#000" stroke-opacity=".02" points="0 0 20.496 11.833 0 23.667 0 0" transform="translate(81.983738224927, 0) rotate(0, 10.247967278116, 11.833333333333)"/><polyline fill="#ddd" fill-opacity=".02" stroke="#000" stroke-opacity=".02" points="0 0 20.496 11.833 0 23.667 0 0" transform="translate(102.47967278116, 0) rotate(180, 10.247967278116, 11.833333333333)"/><polyline fill="#ddd" fill-opacity=".107" stroke="#000" stroke-opacity=".02" points="0 0 20.496 11.833 0 23.667 0 0" transform="translate(0, 11.833333333333) rotate(180, 10.247967278116, 11.833333333333)"/><polyline fill="#ddd" fill-opacity=".141" stroke="#000" stroke-opacity=".02" points="0 0 20.496 11.833 0 23.667 0 0" transform="translate(20.495934556232, 11.833333333333) rotate(0, 10.247967278116, 11.833333333333)"/><polyline fill="#222" fill-opacity=".081" stroke="#000" stroke-opacity=".02" points="0 0 20.496 11.833 0 23.667 0 0" transform="translate(40.991869112463, 11.833333333333) rotate(180, 10.247967278116, 11.833333333333)"/><polyline fill="#ddd" fill-opacity=".124" stroke="#000" stroke-opacity=".02" points="0 0 20.496 11.833 0 23.667 0 0" transform="translate(61.487803668695, 11.833333333333) rotate(0, 10.247967278116, 11.833333333333)"/><polyline fill="#ddd" fill-opacity=".072" stroke="#000" stroke-opacity=".02" points="0 0 20.496 11.833 0 23.667 0 0" transform="translate(81.983738224927, 11.833333333333) rotate(180, 10.247967278116, 11.833333333333)"/><polyline fill="#222" fill-opacity=".081" stroke="#000" stroke-opacity=".02" points="0 0 20.496 11.833 0 23.667 0 0" transform="translate(102.47967278116, 11.833333333333) rotate(0, 10.247967278116, 11.833333333333)"/><polyline fill="#ddd" fill-opacity=".124" stroke="#000" stroke-opacity=".02" points="0 0 20.496 11.833 0 23.667 0 0" transform="translate(0, 23.666666666667) rotate(0, 10.247967278116, 11.833333333333)"/><polyline fill="#ddd" fill-opacity=".037" stroke="#000" stroke-opacity=".02" points="0 0 20.496 11.833 0 23.667 0 0" transform="translate(20.495934556232, 23.666666666667) rotate(180, 10.247967278116, 11.833333333333)"/><polyline fill="#222" fill-opacity=".15" stroke="#000" stroke-opacity=".02" points="0 0 20.496 11.833 0 23.667 0 0" transform="translate(40.991869112463, 23.666666666667) rotate(0, 10.247967278116, 11.833333333333)"/><polyline fill="#ddd" fill-opacity=".072" stroke="#000" stroke-opacity=".02" points="0 0 20.496 11.833 0 23.667 0 0" transform="translate(61.487803668695, 23.666666666667) rotate(180, 10.247967278116, 11.833333333333)"/><polyline fill="#ddd" fill-opacity=".072" stroke="#000" stroke-opacity=".02" points="0 0 20.496 11.833 0 23.667 0 0" transform="translate(81.983738224927, 23.666666666667) rotate(0, 10.247967278116, 11.833333333333)"/><polyline fill="#222" fill-opacity=".063" stroke="#000" stroke-opacity=".02" points="0 0 20.496 11.833 0 23.667 0 0" transform="translate(102.47967278116, 23.666666666667) rotate(180, 10.247967278116, 11.833333333333)"/><polyline fill="#222" fill-opacity=".029" stroke="#000" stroke-opacity=".02" points="0 0 20.496 11.833 0 23.667 0 0" transform="translate(0, 35.5) rotate(180, 10.247967278116, 11.833333333333)"/><polyline fill="#222" fill-opacity=".098" stroke="#000" stroke-opacity=".02" points="0 0 20.496 11.833 0 23.667 0 0" transform="translate(20.495934556232, 35.5) rotate(0, 10.247967278116, 11.833333333333)"/><polyline fill="#ddd" fill-opacity=".107" stroke="#000" stroke-opacity=".02" points="0 0 20.496 11.833 0 23.667 0 0" transform="translate(40.991869112463, 35.5) rotate(180, 10.247967278116, 11.833333333333)"/><polyline fill="#222" fill-opacity=".046" stroke="#000" stroke-opacity=".02" points="0 0 20.496 11.833 0 23.667 0 0" transform="translate(61.487803668695, 35.5) rotate(0, 10.247967278116, 11.833333333333)"/><polyline fill="#222" fill-opacity=".115" stroke="#000" stroke-opacity=".02" points="0 0 20.496 11.833 0 23.667 0 0" transform="translate(81.983738224927, 35.5) rotate(180, 10.247967278116, 11.833333333333)"/><polyline fill="#222" fill-opacity=".046" stroke="#000" stroke-opacity=".02" points="0 0 20.496 11.833 0 23.667 0 0" transform="translate(102.47967278116, 35.5) rotate(0, 10.247967278116, 11.833333333333)"/><polyline fill="#ddd" fill-opacity=".124" stroke="#000" stroke-opacity=".02" points="0 0 20.496 11.833 0 23.667 0 0" transform="translate(0, 47.333333333333) rotate(0, 10.247967278116, 11.833333333333)"/><polyline fill="#222" fill-opacity=".046" stroke="#000" stroke-opacity=".02" points="0 0 20.496 11.833 0 23.667 0 0" transform="translate(20.495934556232, 47.333333333333) rotate(180, 10.247967278116, 11.833333333333)"/><polyline fill="#222" fill-opacity=".029" stroke="#000" stroke-opacity=".02" points="0 0 20.496 11.833 0 23.667 0 0" transform="translate(40.991869112463, 47.333333333333) rotate(0, 10.247967278116, 11.833333333333)"/><polyline fill="#ddd" fill-opacity=".124" stroke="#000" stroke-opacity=".02" points="0 0 20.496 11.833 0 23.667 0 0" transform="translate(61.487803668695, 47.333333333333) rotate(180, 10.247967278116, 11.833333333333)"/><polyline fill="#222" fill-opacity=".029" stroke="#000" stroke-opacity=".02" points="0 0 20.496 11.833 0 23.667 0 0" transform="translate(81.983738224927, 47.333333333333) rotate(0, 10.247967278116, 11.833333333333)"/><polyline fill="#ddd" fill-opacity=".02" stroke="#000" stroke-opacity=".02" points="0 0 20.496 11.833 0 23.667 0 0" transform="translate(102.47967278116, 47.333333333333) rotate(180, 10.247967278116, 11.833333333333)"/></svg>