<svg xmlns="http://www.w3.org/2000/svg" width="132" height="132"><rect width="100%" height="100%" x="0" y="0" fill="#6C5CE7"/><g fill="#222" stroke="#000" stroke-opacity=".02" style="fill-opacity:.028666666666667" transform="translate(-11, -16.5)"><rect width="11" height="33" x="11" y="0"/><rect width="33" height="11" x="0" y="11"/></g><g fill="#222" stroke="#000" stroke-opacity=".02" style="fill-opacity:.028666666666667" transform="translate(121, -16.5)"><rect width="11" height="33" x="11" y="0"/><rect width="33" height="11" x="0" y="11"/></g><g fill="#222" stroke="#000" stroke-opacity=".02" style="fill-opacity:.028666666666667" transform="translate(-11, 115.5)"><rect width="11" height="33" x="11" y="0"/><rect width="33" height="11" x="0" y="11"/></g><g fill="#222" stroke="#000" stroke-opacity=".02" style="fill-opacity:.028666666666667" transform="translate(121, 115.5)"><rect width="11" height="33" x="11" y="0"/><rect width="33" height="11" x="0" y="11"/></g><g fill="#ddd" stroke="#000" stroke-opacity=".02" style="fill-opacity:.037333333333333" transform="translate(11, -16.5)"><rect width="11" height="33" x="11" y="0"/><rect width="33" height="11" x="0" y="11"/></g><g fill="#ddd" stroke="#000" stroke-opacity=".02" style="fill-opacity:.037333333333333" transform="translate(11, 115.5)"><rect width="11" height="33" x="11" y="0"/><rect width="33" height="11" x="0" y="11"/></g><g fill="#ddd" stroke="#000" stroke-opacity=".02" style="fill-opacity:.14133333333333" transform="translate(33, -16.5)"><rect width="11" height="33" x="11" y="0"/><rect width="33" height="11" x="0" y="11"/></g><g fill="#ddd" stroke="#000" stroke-opacity=".02" style="fill-opacity:.14133333333333" transform="translate(33, 115.5)"><rect width="11" height="33" x="11" y="0"/><rect width="33" height="11" x="0" y="11"/></g><g fill="#222" stroke="#000" stroke-opacity=".02" style="fill-opacity:.046" transform="translate(55, -16.5)"><rect width="11" height="33" x="11" y="0"/><rect width="33" height="11" x="0" y="11"/></g><g fill="#222" stroke="#000" stroke-opacity=".02" style="fill-opacity:.046" transform="translate(55, 115.5)"><rect width="11" height="33" x="11" y="0"/><rect width="33" height="11" x="0" y="11"/></g><g fill="#ddd" stroke="#000" stroke-opacity=".02" style="fill-opacity:.14133333333333" transform="translate(77, -16.5)"><rect width="11" height="33" x="11" y="0"/><rect width="33" height="11" x="0" y="11"/></g><g fill="#ddd" stroke="#000" stroke-opacity=".02" style="fill-opacity:.14133333333333" transform="translate(77, 115.5)"><rect width="11" height="33" x="11" y="0"/><rect width="33" height="11" x="0" y="11"/></g><g fill="#222" stroke="#000" stroke-opacity=".02" style="fill-opacity:.028666666666667" transform="translate(99, -16.5)"><rect width="11" height="33" x="11" y="0"/><rect width="33" height="11" x="0" y="11"/></g><g fill="#222" stroke="#000" stroke-opacity=".02" style="fill-opacity:.028666666666667" transform="translate(99, 115.5)"><rect width="11" height="33" x="11" y="0"/><rect width="33" height="11" x="0" y="11"/></g><g fill="#ddd" stroke="#000" stroke-opacity=".02" style="fill-opacity:.089333333333333" transform="translate(0, 5.5)"><rect width="11" height="33" x="11" y="0"/><rect width="33" height="11" x="0" y="11"/></g><g fill="#ddd" stroke="#000" stroke-opacity=".02" style="fill-opacity:.089333333333333" transform="translate(132, 5.5)"><rect width="11" height="33" x="11" y="0"/><rect width="33" height="11" x="0" y="11"/></g><g fill="#222" stroke="#000" stroke-opacity=".02" style="fill-opacity:.11533333333333" transform="translate(22, 5.5)"><rect width="11" height="33" x="11" y="0"/><rect width="33" height="11" x="0" y="11"/></g><g fill="#222" stroke="#000" stroke-opacity=".02" style="fill-opacity:.13266666666667" transform="translate(44, 5.5)"><rect width="11" height="33" x="11" y="0"/><rect width="33" height="11" x="0" y="11"/></g><g fill="#ddd" stroke="#000" stroke-opacity=".02" style="fill-opacity:.072" transform="translate(66, 5.5)"><rect width="11" height="33" x="11" y="0"/><rect width="33" height="11" x="0" y="11"/></g><g fill="#222" stroke="#000" stroke-opacity=".02" style="fill-opacity:.13266666666667" transform="translate(88, 5.5)"><rect width="11" height="33" x="11" y="0"/><rect width="33" height="11" x="0" y="11"/></g><g fill="#222" stroke="#000" stroke-opacity=".02" style="fill-opacity:.098" transform="translate(110, 5.5)"><rect width="11" height="33" x="11" y="0"/><rect width="33" height="11" x="0" y="11"/></g><g fill="#ddd" stroke="#000" stroke-opacity=".02" style="fill-opacity:.02" transform="translate(-11, 27.5)"><rect width="11" height="33" x="11" y="0"/><rect width="33" height="11" x="0" y="11"/></g><g fill="#ddd" stroke="#000" stroke-opacity=".02" style="fill-opacity:.02" transform="translate(121, 27.5)"><rect width="11" height="33" x="11" y="0"/><rect width="33" height="11" x="0" y="11"/></g><g fill="#ddd" stroke="#000" stroke-opacity=".02" style="fill-opacity:.02" transform="translate(11, 27.5)"><rect width="11" height="33" x="11" y="0"/><rect width="33" height="11" x="0" y="11"/></g><g fill="#222" stroke="#000" stroke-opacity=".02" style="fill-opacity:.13266666666667" transform="translate(33, 27.5)"><rect width="11" height="33" x="11" y="0"/><rect width="33" height="11" x="0" y="11"/></g><g fill="#ddd" stroke="#000" stroke-opacity=".02" style="fill-opacity:.124" transform="translate(55, 27.5)"><rect width="11" height="33" x="11" y="0"/><rect width="33" height="11" x="0" y="11"/></g><g fill="#ddd" stroke="#000" stroke-opacity=".02" style="fill-opacity:.10666666666667" transform="translate(77, 27.5)"><rect width="11" height="33" x="11" y="0"/><rect width="33" height="11" x="0" y="11"/></g><g fill="#222" stroke="#000" stroke-opacity=".02" style="fill-opacity:.15" transform="translate(99, 27.5)"><rect width="11" height="33" x="11" y="0"/><rect width="33" height="11" x="0" y="11"/></g><g fill="#ddd" stroke="#000" stroke-opacity=".02" style="fill-opacity:.072" transform="translate(0, 49.5)"><rect width="11" height="33" x="11" y="0"/><rect width="33" height="11" x="0" y="11"/></g><g fill="#ddd" stroke="#000" stroke-opacity=".02" style="fill-opacity:.072" transform="translate(132, 49.5)"><rect width="11" height="33" x="11" y="0"/><rect width="33" height="11" x="0" y="11"/></g><g fill="#222" stroke="#000" stroke-opacity=".02" style="fill-opacity:.080666666666667" transform="translate(22, 49.5)"><rect width="11" height="33" x="11" y="0"/><rect width="33" height="11" x="0" y="11"/></g><g fill="#ddd" stroke="#000" stroke-opacity=".02" style="fill-opacity:.037333333333333" transform="translate(44, 49.5)"><rect width="11" height="33" x="11" y="0"/><rect width="33" height="11" x="0" y="11"/></g><g fill="#222" stroke="#000" stroke-opacity=".02" style="fill-opacity:.080666666666667" transform="translate(66, 49.5)"><rect width="11" height="33" x="11" y="0"/><rect width="33" height="11" x="0" y="11"/></g><g fill="#ddd" stroke="#000" stroke-opacity=".02" style="fill-opacity:.10666666666667" transform="translate(88, 49.5)"><rect width="11" height="33" x="11" y="0"/><rect width="33" height="11" x="0" y="11"/></g><g fill="#ddd" stroke="#000" stroke-opacity=".02" style="fill-opacity:.089333333333333" transform="translate(110, 49.5)"><rect width="11" height="33" x="11" y="0"/><rect width="33" height="11" x="0" y="11"/></g><g fill="#ddd" stroke="#000" stroke-opacity=".02" style="fill-opacity:.072" transform="translate(-11, 71.5)"><rect width="11" height="33" x="11" y="0"/><rect width="33" height="11" x="0" y="11"/></g><g fill="#ddd" stroke="#000" stroke-opacity=".02" style="fill-opacity:.072" transform="translate(121, 71.5)"><rect width="11" height="33" x="11" y="0"/><rect width="33" height="11" x="0" y="11"/></g><g fill="#222" stroke="#000" stroke-opacity=".02" style="fill-opacity:.15" transform="translate(11, 71.5)"><rect width="11" height="33" x="11" y="0"/><rect width="33" height="11" x="0" y="11"/></g><g fill="#ddd" stroke="#000" stroke-opacity=".02" style="fill-opacity:.10666666666667" transform="translate(33, 71.5)"><rect width="11" height="33" x="11" y="0"/><rect width="33" height="11" x="0" y="11"/></g><g fill="#ddd" stroke="#000" stroke-opacity=".02" style="fill-opacity:.124" transform="translate(55, 71.5)"><rect width="11" height="33" x="11" y="0"/><rect width="33" height="11" x="0" y="11"/></g><g fill="#ddd" stroke="#000" stroke-opacity=".02" style="fill-opacity:.14133333333333" transform="translate(77, 71.5)"><rect width="11" height="33" x="11" y="0"/><rect width="33" height="11" x="0" y="11"/></g><g fill="#ddd" stroke="#000" stroke-opacity=".02" style="fill-opacity:.124" transform="translate(99, 71.5)"><rect width="11" height="33" x="11" y="0"/><rect width="33" height="11" x="0" y="11"/></g><g fill="#ddd" stroke="#000" stroke-opacity=".02" style="fill-opacity:.124" transform="translate(0, 93.5)"><rect width="11" height="33" x="11" y="0"/><rect width="33" height="11" x="0" y="11"/></g><g fill="#ddd" stroke="#000" stroke-opacity=".02" style="fill-opacity:.124" transform="translate(132, 93.5)"><rect width="11" height="33" x="11" y="0"/><rect width="33" height="11" x="0" y="11"/></g><g fill="#222" stroke="#000" stroke-opacity=".02" style="fill-opacity:.063333333333333" transform="translate(22, 93.5)"><rect width="11" height="33" x="11" y="0"/><rect width="33" height="11" x="0" y="11"/></g><g fill="#222" stroke="#000" stroke-opacity=".02" style="fill-opacity:.13266666666667" transform="translate(44, 93.5)"><rect width="11" height="33" x="11" y="0"/><rect width="33" height="11" x="0" y="11"/></g><g fill="#222" stroke="#000" stroke-opacity=".02" style="fill-opacity:.080666666666667" transform="translate(66, 93.5)"><rect width="11" height="33" x="11" y="0"/><rect width="33" height="11" x="0" y="11"/></g><g fill="#ddd" stroke="#000" stroke-opacity=".02" style="fill-opacity:.072" transform="translate(88, 93.5)"><rect width="11" height="33" x="11" y="0"/><rect width="33" height="11" x="0" y="11"/></g><g fill="#ddd" stroke="#000" stroke-opacity=".02" style="fill-opacity:.072" transform="translate(110, 93.5)"><rect width="11" height="33" x="11" y="0"/><rect width="33" height="11" x="0" y="11"/></g></svg>