<svg xmlns="http://www.w3.org/2000/svg" width="80" height="80"><rect width="100%" height="100%" x="0" y="0" fill="#FDCB6E"/><rect width="13.333" height="13.333" x="0" y="0" fill="#222" fill-opacity=".029" stroke="#000" stroke-opacity=".02"/><rect width="13.333" height="13.333" x="13.333" y="0" fill="#ddd" fill-opacity=".037" stroke="#000" stroke-opacity=".02"/><rect width="13.333" height="13.333" x="26.667" y="0" fill="#222" fill-opacity=".133" stroke="#000" stroke-opacity=".02"/><rect width="13.333" height="13.333" x="40" y="0" fill="#222" fill-opacity=".098" stroke="#000" stroke-opacity=".02"/><rect width="13.333" height="13.333" x="53.333" y="0" fill="#222" fill-opacity=".115" stroke="#000" stroke-opacity=".02"/><rect width="13.333" height="13.333" x="66.667" y="0" fill="#ddd" fill-opacity=".02" stroke="#000" stroke-opacity=".02"/><rect width="13.333" height="13.333" x="0" y="13.333" fill="#222" fill-opacity=".063" stroke="#000" stroke-opacity=".02"/><rect width="13.333" height="13.333" x="13.333" y="13.333" fill="#222" fill-opacity=".081" stroke="#000" stroke-opacity=".02"/><rect width="13.333" height="13.333" x="26.667" y="13.333" fill="#222" fill-opacity=".029" stroke="#000" stroke-opacity=".02"/><rect width="13.333" height="13.333" x="40" y="13.333" fill="#222" fill-opacity=".029" stroke="#000" stroke-opacity=".02"/><rect width="13.333" height="13.333" x="53.333" y="13.333" fill="#ddd" fill-opacity=".055" stroke="#000" stroke-opacity=".02"/><rect width="13.333" height="13.333" x="66.667" y="13.333" fill="#ddd" fill-opacity=".107" stroke="#000" stroke-opacity=".02"/><rect width="13.333" height="13.333" x="0" y="26.667" fill="#222" fill-opacity=".063" stroke="#000" stroke-opacity=".02"/><rect width="13.333" height="13.333" x="13.333" y="26.667" fill="#222" fill-opacity=".115" stroke="#000" stroke-opacity=".02"/><rect width="13.333" height="13.333" x="26.667" y="26.667" fill="#ddd" fill-opacity=".02" stroke="#000" stroke-opacity=".02"/><rect width="13.333" height="13.333" x="40" y="26.667" fill="#222" fill-opacity=".081" stroke="#000" stroke-opacity=".02"/><rect width="13.333" height="13.333" x="53.333" y="26.667" fill="#ddd" fill-opacity=".037" stroke="#000" stroke-opacity=".02"/><rect width="13.333" height="13.333" x="66.667" y="26.667" fill="#222" fill-opacity=".133" stroke="#000" stroke-opacity=".02"/><rect width="13.333" height="13.333" x="0" y="40" fill="#222" fill-opacity=".15" stroke="#000" stroke-opacity=".02"/><rect width="13.333" height="13.333" x="13.333" y="40" fill="#ddd" fill-opacity=".037" stroke="#000" stroke-opacity=".02"/><rect width="13.333" height="13.333" x="26.667" y="40" fill="#222" fill-opacity=".098" stroke="#000" stroke-opacity=".02"/><rect width="13.333" height="13.333" x="40" y="40" fill="#222" fill-opacity=".098" stroke="#000" stroke-opacity=".02"/><rect width="13.333" height="13.333" x="53.333" y="40" fill="#ddd" fill-opacity=".107" stroke="#000" stroke-opacity=".02"/><rect width="13.333" height="13.333" x="66.667" y="40" fill="#222" fill-opacity=".098" stroke="#000" stroke-opacity=".02"/><rect width="13.333" height="13.333" x="0" y="53.333" fill="#222" fill-opacity=".063" stroke="#000" stroke-opacity=".02"/><rect width="13.333" height="13.333" x="13.333" y="53.333" fill="#ddd" fill-opacity=".072" stroke="#000" stroke-opacity=".02"/><rect width="13.333" height="13.333" x="26.667" y="53.333" fill="#ddd" fill-opacity=".107" stroke="#000" stroke-opacity=".02"/><rect width="13.333" height="13.333" x="40" y="53.333" fill="#222" fill-opacity=".133" stroke="#000" stroke-opacity=".02"/><rect width="13.333" height="13.333" x="53.333" y="53.333" fill="#ddd" fill-opacity=".037" stroke="#000" stroke-opacity=".02"/><rect width="13.333" height="13.333" x="66.667" y="53.333" fill="#222" fill-opacity=".081" stroke="#000" stroke-opacity=".02"/><rect width="13.333" height="13.333" x="0" y="66.667" fill="#ddd" fill-opacity=".107" stroke="#000" stroke-opacity=".02"/><rect width="13.333" height="13.333" x="13.333" y="66.667" fill="#222" fill-opacity=".133" stroke="#000" stroke-opacity=".02"/><rect width="13.333" height="13.333" x="26.667" y="66.667" fill="#ddd" fill-opacity=".055" stroke="#000" stroke-opacity=".02"/><rect width="13.333" height="13.333" x="40" y="66.667" fill="#ddd" fill-opacity=".141" stroke="#000" stroke-opacity=".02"/><rect width="13.333" height="13.333" x="53.333" y="66.667" fill="#ddd" fill-opacity=".107" stroke="#000" stroke-opacity=".02"/><rect width="13.333" height="13.333" x="66.667" y="66.667" fill="#ddd" fill-opacity=".072" stroke="#000" stroke-opacity=".02"/></svg>